<?xml version="1.0" encoding="UTF-8" standalone="no"?><!-- Generator: Gravit.io --><svg xmlns="http://www.w3.org/2000/svg" xmlns:xlink="http://www.w3.org/1999/xlink" style="isolation:isolate" viewBox="0 0 428 428" width="428pt" height="428pt"><defs><clipPath id="_clipPath_xlWg8iwLum8INRRidmCLCz927cqspTHG"><rect width="428" height="428"/></clipPath></defs><g clip-path="url(#_clipPath_xlWg8iwLum8INRRidmCLCz927cqspTHG)"><clipPath id="_clipPath_J44OPLXSREIvazcQ4epJaIWB1iYOBHH5"><rect x="1" y="1" width="426" height="426" transform="matrix(1,0,0,1,0,0)" fill="rgb(255,255,255)"/></clipPath><g clip-path="url(#_clipPath_J44OPLXSREIvazcQ4epJaIWB1iYOBHH5)"><g><g><g><path d=" M 426.36 213.686 C 426.36 217.006 426.29 220.326 426.13 223.606 C 425.7 233.096 424.64 242.416 423 251.546 C 423 251.546 423 251.556 423 251.556 C 422.13 256.406 421.09 261.196 419.9 265.916 C 419.9 265.916 419.9 265.926 419.9 265.936 C 402.26 335.756 350.1 391.836 282.63 414.936 C 261.01 422.346 237.82 426.356 213.68 426.356 C 189.68 426.356 166.61 422.376 145.09 415.056 C 61.29 386.516 1 307.146 1 213.676 C 1 178.566 9.51 145.446 24.57 116.266 L 24.57 116.266 C 53.74 59.766 107.48 18.016 171.66 5.156 C 184.97 2.486 198.73 1.056 212.82 1.006 C 212.96 1.006 213.11 1.006 213.25 1.006 C 213.39 1.006 213.54 1.006 213.68 1.006 C 241.92 1.006 268.87 6.506 293.52 16.506 C 371.42 48.066 426.36 124.456 426.36 213.686 Z " fill="rgb(98,168,221)"/><g><g><g><g><path d=" M 190.74 4.916 C 190.74 4.916 180.35 0.216 186.06 11.786 C 187.78 15.266 186.39 22.826 187.01 26.446 C 187.51 29.376 189.76 32.806 194.7 35.326 C 199.64 37.856 203.53 33.496 206.31 28.806 C 209.09 24.116 214.27 18.166 221.07 18.656 C 227.87 19.146 232.86 10.216 225.04 6.246 C 217.22 2.276 214.22 -0.084 210.81 1.496 C 208.79 2.426 207.9 5.786 203.15 6.116 C 198.4 6.436 190.74 4.916 190.74 4.916 Z " fill="rgb(101,153,89)"/><path d=" M 218.18 262.816 C 213.16 271.346 210.39 273.326 210.39 273.326 C 210.39 273.326 208.57 275.246 207.88 275.796 C 201.69 280.736 196.1 278.236 195.31 296.706 C 195.31 296.706 191.41 306.396 182.77 305.746 C 178.24 305.406 178.66 312.326 176.51 313.536 C 170.64 316.836 162.58 300.416 158.61 325.226 C 158.61 325.226 157.98 330.146 154.61 337.606 C 153.03 341.116 147.85 344.136 147.24 359.306 C 147.02 364.726 146.28 367.576 145.42 368.996 C 144.16 371.086 144.29 373.776 145.27 376.026 C 146.58 379.026 147.65 382.346 147.11 384.276 C 145.94 388.446 123.47 385.486 119.01 371.886 C 114.55 358.276 106.18 333.496 106.18 333.496 L 102.47 319.346 C 101.25 314.706 100.77 309.906 100.78 305.096 C 100.79 296.746 98.91 282.156 86.84 274.276 C 58.21 255.576 58.76 222.866 67.86 208.486 C 69.26 206.266 73.93 203.976 62.5 199.436 C 54.87 196.416 53.38 190.056 53.22 186.166 C 53.13 183.856 52.5 181.596 51.18 179.716 L 45.69 171.926 C 42.83 167.866 39.04 164.556 34.54 162.626 C 28.83 160.176 21.07 154.936 21.16 144.586 C 21.29 128.216 23.95 124.186 24.57 117.356 C 24.6 117.046 24.6 116.686 24.59 116.296 C 24.59 116.296 24.59 116.296 24.59 116.296 C 53.76 59.796 107.5 18.046 171.68 5.186 C 172.4 6.796 173.71 10.266 173.71 14.066 C 173.71 18.276 172.09 22.896 166.25 25.856 C 153.15 32.486 158.43 24.276 158.04 21.986 C 157.52 18.866 152.5 16.296 145.76 22.826 C 139.02 29.356 137.26 22.226 131.5 23.806 C 131.5 23.806 131.5 23.806 131.49 23.806 C 131.03 24.036 114.97 32.226 117.93 41.566 C 120.93 51.046 122.07 56.286 132.92 51.856 C 143.77 47.426 136.13 40.036 144.07 39.776 C 152.01 39.506 148.76 35.136 149.61 33.126 C 150.73 30.456 155.42 30.686 160.83 34.406 C 166.24 38.126 164.55 48.876 164.55 48.876 C 164.55 48.876 170.62 50.506 170.44 53.796 C 170.25 57.076 170.96 61.946 165.5 63.546 C 160.03 65.146 154.92 62.676 152.03 64.466 C 149.75 65.886 149.03 71.766 148.77 74.916 C 148.58 77.136 141.57 77.246 133.68 77.926 C 123.28 78.826 113.22 83.196 106.16 91.086 C 105.65 91.656 105.32 92.256 104.92 92.636 C 102.07 95.306 89.98 99.346 90.02 108.386 C 90.03 109.746 90.84 113.776 90.84 113.776 C 90.84 113.776 93.25 127.396 82.23 129.366 C 75.07 130.656 72.19 122.666 71.05 116.916 C 70.44 113.826 67.68 111.706 64.64 112.106 L 55.37 113.306 C 51.77 113.776 48.43 115.526 46.06 118.356 C 39.9 125.726 40.85 129.996 50.51 149.546 C 52.53 153.636 48.71 158.036 51 167.866 C 51.46 169.846 56.51 170.166 58.27 171.106 C 61.28 172.716 62.7 184.306 62.7 184.306 C 62.7 184.306 71.49 193.246 76.07 193.246 C 76.33 193.246 76.57 193.216 76.8 193.156 C 78.82 192.636 80.66 190.486 82.03 188.376 C 84.11 185.166 87.37 183.046 91.09 182.596 C 99.45 181.596 113.92 180.956 122.94 186.726 C 136.22 195.226 119.88 194.706 138.65 195.876 C 150.39 196.606 158.58 207.486 163.08 215.546 C 165.81 220.436 170.29 224.086 175.55 225.706 C 179.73 226.996 182.84 231.866 187.96 233.826 C 192.81 235.686 202.98 230.756 208.23 238.166 C 213.48 245.546 223.19 254.286 218.18 262.816 Z " fill="rgb(101,153,89)"/><path d=" M 282.62 414.946 C 261 422.356 237.81 426.366 213.67 426.366 C 189.67 426.366 166.6 422.386 145.08 415.066 C 149.44 411.666 161.08 403.356 166.36 407.186 C 172.94 411.946 167.06 417.876 196.37 418.936 C 225.68 419.996 218.09 419.296 222.31 414.086 C 225.1 410.646 226.16 409.096 241.87 416.676 C 241.87 416.676 253.76 415.926 255.16 409.996 C 256.48 404.516 279.3 413.586 282.62 414.946 Z " fill="rgb(101,153,89)"/><path d=" M 426.36 213.686 C 426.36 217.006 426.29 220.326 426.13 223.606 C 419.54 224.346 423.5 230.846 423.02 251.036 C 423.02 251.206 423.01 251.366 423 251.536 C 423 251.536 423 251.546 423 251.546 C 422.81 256.906 421.59 261.726 419.9 265.906 C 419.9 265.906 419.9 265.916 419.9 265.926 C 415.3 277.336 407.26 284.016 407.26 284.016 C 407.26 284.016 393.43 300.916 394.5 312.806 C 395.49 323.756 382.98 341.086 361.69 336.956 C 358.84 336.406 357 333.496 357.85 330.636 C 359.27 325.886 360.14 318.636 354.59 314.006 C 349.18 309.486 353.22 303.746 357.15 299.976 C 360.14 297.116 361.85 293.196 362.25 289.026 C 362.6 285.396 363.46 281.506 365.54 280.426 C 370.97 277.616 364.46 261.616 363.62 255.406 C 363.21 252.346 363.13 243.166 368.26 244.036 C 373.39 244.916 361.93 201.516 361.93 201.516 C 361.93 201.516 356.8 186.836 333.41 194.266 C 310.02 201.696 289.7 192.046 289.7 192.046 C 289.7 192.046 282.45 186.096 287.9 164.246 C 293.35 142.396 282.93 128.996 286.67 126.896 C 290.41 124.796 298.1 123.656 301.39 114.536 C 304.68 105.406 303.2 100.916 317.57 101.766 C 331.95 102.616 341.21 93.516 352.9 98.946 C 364.59 104.376 367.64 109.996 381.58 104.136 C 395.52 98.276 370.81 89.836 370.81 89.836 C 370.81 89.836 366.69 86.126 363.14 86.686 C 359.6 87.236 353 82.026 350.24 83.886 C 347.19 85.956 349.77 90.536 336.9 77.746 C 335.32 76.176 331.49 77.196 328.75 81.066 C 326.02 84.926 319.95 78.796 319.95 78.796 C 319.95 78.796 315.17 74.976 311.94 88.656 C 308.7 102.336 273.06 86.376 289.58 75.156 C 292.77 72.986 300.07 71.366 304.85 75.946 C 309.62 80.526 302.14 66.316 313.21 62.186 C 324.28 58.056 303.48 36.186 295.03 34.896 C 289.11 33.986 272.55 29.266 273.36 18.776 C 273.82 12.796 284.46 14.186 293.52 16.496 C 371.42 48.066 426.36 124.456 426.36 213.686 Z " fill="rgb(101,153,89)"/><path d=" M 277.8 36.806 C 277.8 36.806 299.45 52.396 293.86 58.306 C 288.27 64.216 286.99 62.766 282.61 55.086 C 278.23 47.406 269.12 40.366 271.86 36.496 C 274.59 32.616 277.8 36.806 277.8 36.806 Z " fill="rgb(101,153,89)"/><path d=" M 271.94 47.226 C 274.34 46.986 278.28 50.166 277.77 55.106 C 277.26 60.056 260.79 48.336 271.94 47.226 Z " fill="rgb(101,153,89)"/><path d=" M 70.6 140.366 C 70.6 140.366 74.48 151.146 88.87 146.066 C 103.26 140.996 66.21 135.186 70.6 140.366 Z " fill="rgb(101,153,89)"/><path d=" M 76.33 155.106 C 76.33 155.106 78.71 161.076 88.77 156.706 C 90.82 155.816 91.44 155.126 90.83 154.556 C 87.16 151.096 76.87 148.546 76.33 155.106 Z " fill="rgb(101,153,89)"/><path d=" M 114.59 156.126 C 120.61 167.966 84.56 159.036 91.79 154.046 C 99.01 149.056 110.94 148.956 114.59 156.126 Z " fill="rgb(101,153,89)"/></g></g></g></g></g></g></g></g></g></svg>