<?xml version="1.0" encoding="UTF-8" standalone="no"?><!-- Generator: Gravit.io --><svg xmlns="http://www.w3.org/2000/svg" xmlns:xlink="http://www.w3.org/1999/xlink" style="isolation:isolate" viewBox="0 0 1227.815 490" width="1227.815pt" height="490pt"><defs><clipPath id="_clipPath_i1qwrYTgwtvf4cl6ftoNPUVopJ5HiolE"><rect width="1227.815" height="490"/></clipPath></defs><g clip-path="url(#_clipPath_i1qwrYTgwtvf4cl6ftoNPUVopJ5HiolE)"><path d=" M 474.111 245 C 474.115 243.068 474.359 241.14 474.837 239.267 C 475.338 237.339 476.056 235.475 476.971 233.705 C 477.958 231.815 479.117 230.02 480.438 228.348 C 481.879 226.523 483.456 224.809 485.153 223.218 C 487.022 221.474 488.992 219.849 491.057 218.345 C 493.315 216.699 495.657 215.164 498.068 213.753 C 500.693 212.21 503.378 210.782 506.123 209.465 C 509.086 208.041 512.095 206.72 515.148 205.511 C 518.418 204.211 521.731 203.014 525.075 201.919 C 528.631 200.752 532.218 199.684 535.831 198.713 C 539.648 197.691 543.488 196.759 547.352 195.926 C 551.405 195.049 555.475 194.271 559.562 193.583 C 568.249 192.129 576.996 191.048 585.773 190.338 C 595.131 189.581 604.519 189.205 613.908 189.209 C 623.296 189.205 632.684 189.581 642.042 190.338 C 650.819 191.048 659.566 192.129 668.253 193.583 C 672.34 194.271 676.41 195.049 680.463 195.926 C 684.328 196.759 688.167 197.691 691.985 198.713 C 695.597 199.684 699.184 200.752 702.741 201.919 C 706.084 203.014 709.397 204.211 712.668 205.511 C 715.72 206.72 718.73 208.041 721.692 209.465 C 724.437 210.782 727.122 212.21 729.747 213.753 C 732.158 215.164 734.501 216.699 736.758 218.345 C 738.823 219.849 740.794 221.474 742.662 223.218 C 744.359 224.809 745.937 226.523 747.378 228.348 C 748.699 230.02 749.857 231.815 750.845 233.705 C 751.76 235.475 752.478 237.339 752.978 239.267 C 753.457 241.14 753.7 243.068 753.705 245 C 753.7 246.932 753.457 248.86 752.978 250.733 C 752.478 252.661 751.76 254.525 750.845 256.295 C 749.857 258.185 748.699 259.98 747.378 261.652 C 745.937 263.477 744.359 265.191 742.662 266.782 C 740.794 268.526 738.823 270.151 736.758 271.655 C 734.501 273.301 732.158 274.836 729.747 276.247 C 727.122 277.79 724.437 279.218 721.692 280.535 C 718.73 281.959 715.72 283.28 712.668 284.489 C 709.397 285.789 706.084 286.986 702.741 288.081 C 699.184 289.248 695.597 290.316 691.985 291.287 C 688.167 292.309 684.328 293.241 680.463 294.074 C 676.41 294.951 672.34 295.729 668.253 296.417 C 659.566 297.871 650.819 298.952 642.042 299.662 C 632.684 300.419 623.296 300.795 613.908 300.791 C 604.519 300.795 595.131 300.419 585.773 299.662 C 576.996 298.952 568.249 297.871 559.562 296.417 C 555.475 295.729 551.405 294.951 547.352 294.074 C 543.488 293.241 539.648 292.309 535.831 291.287 C 532.218 290.316 528.631 289.248 525.075 288.081 C 521.731 286.986 518.418 285.789 515.148 284.489 C 512.095 283.28 509.086 281.959 506.123 280.535 C 503.378 279.218 500.693 277.79 498.068 276.247 C 495.657 274.836 493.315 273.301 491.057 271.655 C 488.992 270.151 487.022 268.526 485.153 266.782 C 483.456 265.191 481.879 263.477 480.438 261.652 C 479.117 259.98 477.958 258.185 476.971 256.295 C 476.056 254.525 475.338 252.661 474.837 250.733 C 474.359 248.86 474.115 246.932 474.111 245 Z  M 474.538 245 C 474.542 243.102 474.782 241.212 475.252 239.374 C 475.744 237.476 476.449 235.642 477.351 233.902 C 478.322 232.038 479.467 230.264 480.771 228.613 C 482.199 226.805 483.76 225.104 485.448 223.53 C 487.299 221.799 489.257 220.183 491.309 218.691 C 493.554 217.053 495.884 215.527 498.286 214.121 C 500.899 212.586 503.575 211.162 506.307 209.85 C 509.261 208.43 512.262 207.114 515.306 205.908 C 518.568 204.613 521.872 203.416 525.207 202.326 C 528.755 201.163 532.338 200.094 535.942 199.128 C 539.751 198.106 543.586 197.178 547.442 196.345 C 551.486 195.473 555.552 194.69 559.635 194.006 C 568.309 192.553 577.043 191.471 585.807 190.766 C 595.157 190.009 604.528 189.633 613.908 189.637 C 623.287 189.633 632.658 190.009 642.008 190.766 C 650.772 191.471 659.506 192.553 668.181 194.006 C 672.263 194.69 676.329 195.473 680.373 196.345 C 684.229 197.178 688.064 198.106 691.873 199.128 C 695.477 200.094 699.06 201.163 702.608 202.326 C 705.943 203.416 709.248 204.613 712.509 205.908 C 715.553 207.114 718.555 208.43 721.509 209.85 C 724.24 211.162 726.917 212.586 729.529 214.121 C 731.931 215.527 734.261 217.053 736.506 218.691 C 738.558 220.183 740.516 221.799 742.367 223.53 C 744.056 225.104 745.616 226.805 747.044 228.613 C 748.348 230.264 749.494 232.038 750.464 233.902 C 751.366 235.642 752.072 237.476 752.563 239.374 C 753.034 241.212 753.273 243.102 753.277 245 C 753.273 246.898 753.034 248.788 752.563 250.626 C 752.072 252.524 751.366 254.358 750.464 256.098 C 749.494 257.962 748.348 259.736 747.044 261.387 C 745.616 263.195 744.056 264.897 742.367 266.47 C 740.516 268.201 738.558 269.817 736.506 271.309 C 734.261 272.947 731.931 274.473 729.529 275.879 C 726.917 277.414 724.24 278.838 721.509 280.15 C 718.555 281.57 715.553 282.886 712.509 284.092 C 709.248 285.387 705.943 286.584 702.608 287.674 C 699.06 288.837 695.477 289.906 691.873 290.872 C 688.064 291.894 684.229 292.822 680.373 293.655 C 676.329 294.527 672.263 295.31 668.181 295.994 C 659.506 297.447 650.772 298.529 642.008 299.234 C 632.658 299.991 623.287 300.367 613.908 300.363 C 604.528 300.367 595.157 299.991 585.807 299.234 C 577.043 298.529 568.309 297.447 559.635 295.994 C 555.552 295.31 551.486 294.527 547.442 293.655 C 543.586 292.822 539.751 291.894 535.942 290.872 C 532.338 289.906 528.755 288.837 525.207 287.674 C 521.872 286.584 518.568 285.387 515.306 284.092 C 512.262 282.886 509.261 281.57 506.307 280.15 C 503.575 278.838 500.899 277.414 498.286 275.879 C 495.884 274.473 493.554 272.947 491.309 271.309 C 489.257 269.817 487.299 268.201 485.448 266.47 C 483.76 264.897 482.199 263.195 480.771 261.387 C 479.467 259.736 478.322 257.962 477.351 256.098 C 476.449 254.358 475.744 252.524 475.252 250.626 C 474.782 248.788 474.542 246.898 474.538 245 Z " fill-rule="evenodd" fill="rgb(0,0,0)"/><path d=" M 413.448 245 C 413.454 242.229 413.804 239.464 414.49 236.779 C 415.207 234.015 416.237 231.342 417.549 228.804 C 418.965 226.094 420.627 223.52 422.521 221.123 C 424.587 218.505 426.849 216.047 429.282 213.766 C 431.961 211.265 434.787 208.936 437.748 206.778 C 440.985 204.418 444.345 202.217 447.802 200.194 C 451.566 197.981 455.416 195.933 459.351 194.045 C 463.6 192.004 467.915 190.11 472.292 188.375 C 476.982 186.511 481.733 184.795 486.527 183.225 C 491.627 181.552 496.771 180.019 501.951 178.628 C 507.425 177.162 512.93 175.826 518.472 174.631 C 524.283 173.374 530.119 172.258 535.98 171.271 C 548.436 169.187 560.979 167.636 573.564 166.618 C 586.984 165.533 600.446 164.994 613.908 165 C 627.37 164.994 640.832 165.533 654.251 166.618 C 666.836 167.636 679.379 169.187 691.836 171.271 C 697.696 172.258 703.532 173.374 709.344 174.631 C 714.885 175.826 720.39 177.162 725.865 178.628 C 731.045 180.019 736.188 181.552 741.288 183.225 C 746.082 184.795 750.833 186.511 755.523 188.375 C 759.9 190.11 764.216 192.004 768.464 194.045 C 772.4 195.933 776.249 197.981 780.013 200.194 C 783.471 202.217 786.83 204.418 790.067 206.778 C 793.028 208.936 795.854 211.265 798.533 213.766 C 800.967 216.047 803.229 218.505 805.294 221.123 C 807.189 223.52 808.85 226.094 810.266 228.804 C 811.578 231.342 812.608 234.015 813.325 236.779 C 814.012 239.464 814.361 242.229 814.367 245 C 814.361 247.771 814.012 250.536 813.325 253.221 C 812.608 255.985 811.578 258.658 810.266 261.196 C 808.85 263.906 807.189 266.48 805.294 268.877 C 803.229 271.495 800.967 273.953 798.533 276.234 C 795.854 278.735 793.028 281.064 790.067 283.222 C 786.83 285.582 783.471 287.783 780.013 289.806 C 776.249 292.019 772.4 294.067 768.464 295.955 C 764.216 297.996 759.9 299.89 755.523 301.625 C 750.833 303.489 746.082 305.205 741.288 306.775 C 736.188 308.448 731.045 309.981 725.865 311.372 C 720.39 312.838 714.885 314.174 709.344 315.369 C 703.532 316.626 697.696 317.742 691.836 318.729 C 679.379 320.813 666.836 322.364 654.251 323.382 C 640.832 324.467 627.37 325.006 613.908 325 C 600.446 325.006 586.984 324.467 573.564 323.382 C 560.979 322.364 548.436 320.813 535.98 318.729 C 530.119 317.742 524.283 316.626 518.472 315.369 C 512.93 314.174 507.425 312.838 501.951 311.372 C 496.771 309.981 491.627 308.448 486.527 306.775 C 481.733 305.205 476.982 303.489 472.292 301.625 C 467.915 299.89 463.6 297.996 459.351 295.955 C 455.416 294.067 451.566 292.019 447.802 289.806 C 444.345 287.783 440.985 285.582 437.748 283.222 C 434.787 281.064 431.961 278.735 429.282 276.234 C 426.849 273.953 424.587 271.495 422.521 268.877 C 420.627 266.48 418.965 263.906 417.549 261.196 C 416.237 258.658 415.207 255.985 414.49 253.221 C 413.804 250.536 413.454 247.771 413.448 245 Z  M 414.061 245 C 414.067 242.278 414.41 239.569 415.085 236.933 C 415.79 234.211 416.801 231.581 418.095 229.086 C 419.486 226.413 421.129 223.869 422.999 221.503 C 425.046 218.91 427.284 216.47 429.705 214.214 C 432.36 211.731 435.168 209.414 438.11 207.274 C 441.328 204.926 444.669 202.738 448.115 200.721 C 451.86 198.52 455.698 196.479 459.615 194.597 C 463.851 192.562 468.154 190.674 472.519 188.945 C 477.197 187.087 481.935 185.371 486.717 183.808 C 491.805 182.14 496.942 180.608 502.11 179.222 C 507.572 177.757 513.071 176.427 518.6 175.231 C 524.4 173.981 530.23 172.859 536.084 171.878 C 548.522 169.794 561.046 168.243 573.613 167.231 C 587.02 166.146 600.458 165.607 613.908 165.613 C 627.357 165.607 640.795 166.146 654.202 167.231 C 666.769 168.243 679.293 169.794 691.731 171.878 C 697.586 172.859 703.416 173.981 709.215 175.231 C 714.744 176.427 720.243 177.757 725.705 179.222 C 730.873 180.608 736.01 182.14 741.098 183.808 C 745.88 185.371 750.619 187.087 755.296 188.945 C 759.661 190.674 763.964 192.562 768.2 194.597 C 772.118 196.479 775.955 198.52 779.701 200.721 C 783.146 202.738 786.487 204.926 789.705 207.274 C 792.648 209.414 795.455 211.731 798.11 214.214 C 800.531 216.47 802.769 218.91 804.816 221.503 C 806.686 223.869 808.329 226.413 809.721 229.086 C 811.014 231.581 812.026 234.211 812.731 236.933 C 813.405 239.569 813.748 242.278 813.754 245 C 813.748 247.722 813.405 250.431 812.731 253.067 C 812.026 255.789 811.014 258.419 809.721 260.914 C 808.329 263.587 806.686 266.131 804.816 268.497 C 802.769 271.09 800.531 273.53 798.11 275.786 C 795.455 278.269 792.648 280.586 789.705 282.726 C 786.487 285.074 783.146 287.262 779.701 289.279 C 775.955 291.48 772.118 293.521 768.2 295.403 C 763.964 297.438 759.661 299.326 755.296 301.055 C 750.619 302.913 745.88 304.629 741.098 306.192 C 736.01 307.86 730.873 309.392 725.705 310.778 C 720.243 312.243 714.744 313.573 709.215 314.769 C 703.416 316.019 697.586 317.141 691.731 318.122 C 679.293 320.206 666.769 321.757 654.202 322.769 C 640.795 323.854 627.357 324.393 613.908 324.387 C 600.458 324.393 587.02 323.854 573.613 322.769 C 561.046 321.757 548.522 320.206 536.084 318.122 C 530.23 317.141 524.4 316.019 518.6 314.769 C 513.071 313.573 507.572 312.243 502.11 310.778 C 496.942 309.392 491.805 307.86 486.717 306.192 C 481.935 304.629 477.197 302.913 472.519 301.055 C 468.154 299.326 463.851 297.438 459.615 295.403 C 455.698 293.521 451.86 291.48 448.115 289.279 C 444.669 287.262 441.328 285.074 438.11 282.726 C 435.168 280.586 432.36 278.269 429.705 275.786 C 427.284 273.53 425.046 271.09 422.999 268.497 C 421.129 266.131 419.486 263.587 418.095 260.914 C 416.801 258.419 415.79 255.789 415.085 253.067 C 414.41 250.431 414.067 247.722 414.061 245 Z " fill-rule="evenodd" fill="rgb(0,0,0)"/><path d=" M 350.804 245 C 350.812 241.363 351.271 237.734 352.172 234.21 C 353.114 230.582 354.465 227.074 356.187 223.743 C 358.046 220.186 360.226 216.807 362.712 213.661 C 365.424 210.225 368.393 206.999 371.587 204.006 C 375.103 200.723 378.812 197.666 382.699 194.833 C 386.947 191.736 391.356 188.847 395.894 186.192 C 400.834 183.287 405.887 180.6 411.053 178.122 C 416.628 175.443 422.293 172.956 428.038 170.679 C 434.193 168.233 440.428 165.981 446.72 163.921 C 453.415 161.724 460.165 159.713 466.964 157.886 C 474.149 155.963 481.374 154.209 488.648 152.64 C 496.276 150.991 503.935 149.526 511.627 148.231 C 527.977 145.495 544.439 143.46 560.957 142.124 C 578.57 140.7 596.239 139.992 613.908 140 C 631.577 139.992 649.246 140.7 666.858 142.124 C 683.377 143.46 699.839 145.495 716.188 148.231 C 723.88 149.526 731.54 150.991 739.167 152.64 C 746.441 154.209 753.666 155.963 760.851 157.886 C 767.65 159.713 774.401 161.724 781.095 163.921 C 787.387 165.981 793.622 168.233 799.778 170.679 C 805.522 172.956 811.187 175.443 816.763 178.122 C 821.928 180.6 826.981 183.287 831.921 186.192 C 836.459 188.847 840.868 191.736 845.117 194.833 C 849.003 197.666 852.712 200.723 856.228 204.006 C 859.422 206.999 862.391 210.225 865.103 213.661 C 867.589 216.807 869.77 220.186 871.628 223.743 C 873.35 227.074 874.702 230.582 875.643 234.21 C 876.544 237.734 877.003 241.363 877.011 245 C 877.003 248.637 876.544 252.266 875.643 255.79 C 874.702 259.418 873.35 262.926 871.628 266.257 C 869.77 269.814 867.589 273.193 865.103 276.339 C 862.391 279.775 859.422 283.001 856.228 285.994 C 852.712 289.277 849.003 292.334 845.117 295.167 C 840.868 298.264 836.459 301.153 831.921 303.808 C 826.981 306.713 821.928 309.4 816.763 311.878 C 811.187 314.557 805.522 317.044 799.778 319.321 C 793.622 321.767 787.387 324.019 781.095 326.079 C 774.401 328.276 767.65 330.287 760.851 332.114 C 753.666 334.037 746.441 335.791 739.167 337.36 C 731.54 339.009 723.88 340.474 716.188 341.769 C 699.839 344.505 683.377 346.54 666.858 347.876 C 649.246 349.3 631.577 350.008 613.908 350 C 596.239 350.008 578.57 349.3 560.957 347.876 C 544.439 346.54 527.977 344.505 511.627 341.769 C 503.935 340.474 496.276 339.009 488.648 337.36 C 481.374 335.791 474.149 334.037 466.964 332.114 C 460.165 330.287 453.415 328.276 446.72 326.079 C 440.428 324.019 434.193 321.767 428.038 319.321 C 422.293 317.044 416.628 314.557 411.053 311.878 C 405.887 309.4 400.834 306.713 395.894 303.808 C 391.356 301.153 386.947 298.264 382.699 295.167 C 378.812 292.334 375.103 289.277 371.587 285.994 C 368.393 283.001 365.424 279.775 362.712 276.339 C 360.226 273.193 358.046 269.814 356.187 266.257 C 354.465 262.926 353.114 259.418 352.172 255.79 C 351.271 252.266 350.812 248.637 350.804 245 Z  M 351.609 245 C 351.617 241.428 352.068 237.871 352.953 234.411 C 353.878 230.839 355.206 227.387 356.903 224.113 C 358.73 220.605 360.886 217.266 363.34 214.16 C 366.027 210.756 368.964 207.554 372.142 204.593 C 375.626 201.335 379.311 198.293 383.173 195.485 C 387.397 192.403 391.782 189.531 396.304 186.884 C 401.22 183.995 406.257 181.316 411.399 178.846 C 416.958 176.175 422.607 173.697 428.335 171.428 C 434.474 168.99 440.694 166.737 446.97 164.685 C 453.648 162.497 460.391 160.485 467.173 158.667 C 474.342 156.744 481.559 154.998 488.817 153.429 C 496.428 151.787 504.08 150.315 511.764 149.028 C 528.089 146.292 544.527 144.256 561.021 142.929 C 578.618 141.505 596.255 140.797 613.908 140.805 C 631.561 140.797 649.197 141.505 666.794 142.929 C 683.288 144.256 699.726 146.292 716.051 149.028 C 723.735 150.315 731.387 151.787 738.998 153.429 C 746.256 154.998 753.473 156.744 760.642 158.667 C 767.425 160.485 774.167 162.497 780.845 164.685 C 787.121 166.737 793.341 168.99 799.48 171.428 C 805.209 173.697 810.857 176.175 816.417 178.846 C 821.558 181.316 826.595 183.995 831.511 186.884 C 836.033 189.531 840.418 192.403 844.642 195.485 C 848.504 198.293 852.189 201.335 855.673 204.593 C 858.851 207.554 861.788 210.756 864.475 214.16 C 866.929 217.266 869.086 220.605 870.912 224.113 C 872.61 227.387 873.937 230.839 874.863 234.411 C 875.748 237.871 876.198 241.428 876.206 245 C 876.198 248.572 875.748 252.129 874.863 255.589 C 873.937 259.161 872.61 262.613 870.912 265.887 C 869.086 269.395 866.929 272.734 864.475 275.84 C 861.788 279.244 858.851 282.446 855.673 285.407 C 852.189 288.665 848.504 291.707 844.642 294.515 C 840.418 297.597 836.033 300.469 831.511 303.116 C 826.595 306.005 821.558 308.684 816.417 311.154 C 810.857 313.825 805.209 316.303 799.48 318.572 C 793.341 321.01 787.121 323.263 780.845 325.315 C 774.167 327.503 767.425 329.515 760.642 331.333 C 753.473 333.256 746.256 335.002 738.998 336.571 C 731.387 338.213 723.735 339.685 716.051 340.972 C 699.726 343.708 683.288 345.744 666.794 347.071 C 649.197 348.495 631.561 349.203 613.908 349.195 C 596.255 349.203 578.618 348.495 561.021 347.071 C 544.527 345.744 528.089 343.708 511.764 340.972 C 504.08 339.685 496.428 338.213 488.817 336.571 C 481.559 335.002 474.342 333.256 467.173 331.333 C 460.391 329.515 453.648 327.503 446.97 325.315 C 440.694 323.263 434.474 321.01 428.335 318.572 C 422.607 316.303 416.958 313.825 411.399 311.154 C 406.257 308.684 401.22 306.005 396.304 303.116 C 391.782 300.469 387.397 297.597 383.173 294.515 C 379.311 291.707 375.626 288.665 372.142 285.407 C 368.964 282.446 366.027 279.244 363.34 275.84 C 360.886 272.734 358.73 269.395 356.903 265.887 C 355.206 262.613 353.878 259.161 352.953 255.589 C 352.068 252.129 351.617 248.572 351.609 245 Z " fill-rule="evenodd" fill="rgb(0,0,0)"/><path d=" M 291.919 245 C 291.929 240.549 292.49 236.108 293.593 231.796 C 294.745 227.355 296.4 223.061 298.507 218.985 C 300.781 214.633 303.45 210.497 306.493 206.647 C 309.811 202.442 313.444 198.494 317.353 194.831 C 321.657 190.813 326.196 187.072 330.952 183.606 C 336.151 179.815 341.547 176.28 347.1 173.03 C 353.146 169.476 359.33 166.187 365.652 163.154 C 372.476 159.875 379.408 156.832 386.438 154.046 C 393.971 151.052 401.602 148.295 409.302 145.774 C 417.495 143.086 425.756 140.625 434.077 138.389 C 442.87 136.036 451.712 133.889 460.614 131.969 C 469.948 129.951 479.322 128.159 488.736 126.573 C 508.745 123.225 528.891 120.734 549.106 119.1 C 570.661 117.357 592.284 116.49 613.908 116.5 C 635.531 116.49 657.155 117.357 678.709 119.1 C 698.924 120.734 719.071 123.225 739.079 126.573 C 748.493 128.159 757.867 129.951 767.202 131.969 C 776.103 133.889 784.945 136.036 793.739 138.389 C 802.059 140.625 810.32 143.086 818.513 145.774 C 826.213 148.295 833.844 151.052 841.377 154.046 C 848.408 156.832 855.34 159.875 862.164 163.154 C 868.485 166.187 874.669 169.476 880.715 173.03 C 886.268 176.28 891.664 179.815 896.863 183.606 C 901.619 187.072 906.159 190.813 910.462 194.831 C 914.371 198.494 918.004 202.442 921.323 206.647 C 924.365 210.497 927.034 214.633 929.308 218.985 C 931.416 223.061 933.07 227.355 934.222 231.796 C 935.325 236.108 935.886 240.549 935.896 245 C 935.886 249.451 935.325 253.892 934.222 258.204 C 933.07 262.645 931.416 266.939 929.308 271.015 C 927.034 275.367 924.365 279.503 921.323 283.353 C 918.004 287.558 914.371 291.506 910.462 295.169 C 906.159 299.187 901.619 302.928 896.863 306.394 C 891.664 310.185 886.268 313.72 880.715 316.97 C 874.669 320.524 868.485 323.813 862.164 326.846 C 855.34 330.125 848.408 333.168 841.377 335.954 C 833.844 338.948 826.213 341.705 818.513 344.226 C 810.32 346.914 802.059 349.375 793.739 351.611 C 784.945 353.964 776.103 356.111 767.202 358.031 C 757.867 360.049 748.493 361.841 739.079 363.427 C 719.071 366.775 698.924 369.266 678.709 370.9 C 657.155 372.643 635.531 373.51 613.908 373.5 C 592.284 373.51 570.661 372.643 549.106 370.9 C 528.891 369.266 508.745 366.775 488.736 363.427 C 479.322 361.841 469.948 360.049 460.614 358.031 C 451.712 356.111 442.87 353.964 434.077 351.611 C 425.756 349.375 417.495 346.914 409.302 344.226 C 401.602 341.705 393.971 338.948 386.438 335.954 C 379.408 333.168 372.476 330.125 365.652 326.846 C 359.33 323.813 353.146 320.524 347.1 316.97 C 341.547 313.72 336.151 310.185 330.952 306.394 C 326.196 302.928 321.657 299.187 317.353 295.169 C 313.444 291.506 309.811 287.558 306.493 283.353 C 303.45 279.503 300.781 275.367 298.507 271.015 C 296.4 266.939 294.745 262.645 293.593 258.204 C 292.49 253.892 291.929 249.451 291.919 245 Z  M 292.904 245 C 292.914 240.628 293.465 236.276 294.548 232.042 C 295.681 227.67 297.306 223.445 299.383 219.438 C 301.618 215.145 304.257 211.058 307.261 207.257 C 310.549 203.092 314.143 199.173 318.033 195.55 C 322.297 191.562 326.806 187.84 331.533 184.403 C 336.702 180.632 342.069 177.117 347.603 173.877 C 353.619 170.342 359.783 167.063 366.075 164.04 C 372.879 160.771 379.792 157.738 386.802 154.961 C 394.316 151.978 401.927 149.221 409.608 146.71 C 417.78 144.032 426.032 141.57 434.333 139.345 C 443.106 136.991 451.939 134.854 460.82 132.934 C 470.135 130.926 479.5 129.124 488.903 127.548 C 508.882 124.2 528.999 121.709 549.185 120.084 C 570.72 118.341 592.304 117.475 613.908 117.485 C 635.511 117.475 657.095 118.341 678.63 120.084 C 698.816 121.709 718.933 124.2 738.912 127.548 C 748.316 129.124 757.68 130.926 766.995 132.934 C 775.877 134.854 784.709 136.991 793.483 139.345 C 801.783 141.57 810.035 144.032 818.208 146.71 C 825.888 149.221 833.5 151.978 841.013 154.961 C 848.024 157.738 854.936 160.771 861.74 164.04 C 868.032 167.063 874.196 170.342 880.213 173.877 C 885.747 177.117 891.113 180.632 896.283 184.403 C 901.009 187.84 905.519 191.562 909.782 195.55 C 913.672 199.173 917.266 203.092 920.555 207.257 C 923.558 211.058 926.197 215.145 928.432 219.438 C 930.51 223.445 932.134 227.67 933.267 232.042 C 934.35 236.276 934.901 240.628 934.911 245 C 934.901 249.372 934.35 253.724 933.267 257.958 C 932.134 262.33 930.51 266.555 928.432 270.562 C 926.197 274.855 923.558 278.942 920.555 282.743 C 917.266 286.908 913.672 290.827 909.782 294.45 C 905.519 298.438 901.009 302.16 896.283 305.597 C 891.113 309.368 885.747 312.883 880.213 316.123 C 874.196 319.658 868.032 322.937 861.74 325.96 C 854.936 329.229 848.024 332.262 841.013 335.039 C 833.5 338.022 825.888 340.779 818.208 343.29 C 810.035 345.968 801.783 348.43 793.483 350.655 C 784.709 353.009 775.877 355.146 766.995 357.066 C 757.68 359.074 748.316 360.876 738.912 362.452 C 718.933 365.8 698.816 368.291 678.63 369.916 C 657.095 371.659 635.511 372.525 613.908 372.515 C 592.304 372.525 570.72 371.659 549.185 369.916 C 528.999 368.291 508.882 365.8 488.903 362.452 C 479.5 360.876 470.135 359.074 460.82 357.066 C 451.939 355.146 443.106 353.009 434.333 350.655 C 426.032 348.43 417.78 345.968 409.608 343.29 C 401.927 340.779 394.316 338.022 386.802 335.039 C 379.792 332.262 372.879 329.229 366.075 325.96 C 359.783 322.937 353.619 319.658 347.603 316.123 C 342.069 312.883 336.702 309.368 331.533 305.597 C 326.806 302.16 322.297 298.438 318.033 294.45 C 314.143 290.827 310.549 286.908 307.261 282.743 C 304.257 278.942 301.618 274.855 299.383 270.562 C 297.306 266.555 295.681 262.33 294.548 257.958 C 293.465 253.724 292.914 249.372 292.904 245 Z " fill-rule="evenodd" fill="rgb(0,0,0)"/><path d=" M 180.414 245 C 180.427 239.008 181.183 233.029 182.667 227.223 C 184.218 221.244 186.445 215.464 189.282 209.976 C 192.345 204.116 195.937 198.549 200.034 193.365 C 204.501 187.705 209.393 182.389 214.656 177.457 C 220.449 172.048 226.56 167.011 232.963 162.344 C 239.963 157.241 247.227 152.482 254.704 148.107 C 262.844 143.321 271.169 138.893 279.68 134.81 C 288.867 130.396 298.199 126.3 307.665 122.548 C 317.806 118.518 328.08 114.806 338.447 111.412 C 349.476 107.793 360.599 104.479 371.801 101.47 C 383.639 98.301 395.543 95.411 407.527 92.826 C 420.095 90.109 432.715 87.696 445.389 85.562 C 472.326 81.054 499.449 77.7 526.665 75.5 C 555.684 73.153 584.796 71.987 613.908 72 C 643.019 71.987 672.131 73.153 701.15 75.5 C 728.366 77.7 755.489 81.054 782.427 85.562 C 795.1 87.696 807.721 90.109 820.288 92.826 C 832.272 95.411 844.176 98.301 856.015 101.47 C 867.217 104.479 878.339 107.793 889.369 111.412 C 899.735 114.806 910.009 118.518 920.151 122.548 C 929.616 126.3 938.949 130.396 948.135 134.81 C 956.646 138.893 964.971 143.321 973.111 148.107 C 980.588 152.482 987.853 157.241 994.852 162.344 C 1001.255 167.011 1007.366 172.048 1013.16 177.457 C 1018.423 182.389 1023.314 187.705 1027.782 193.365 C 1031.878 198.549 1035.471 204.116 1038.533 209.976 C 1041.37 215.464 1043.597 221.244 1045.148 227.223 C 1046.633 233.029 1047.388 239.008 1047.402 245 C 1047.388 250.992 1046.633 256.971 1045.148 262.777 C 1043.597 268.756 1041.37 274.536 1038.533 280.024 C 1035.471 285.884 1031.878 291.451 1027.782 296.635 C 1023.314 302.295 1018.423 307.611 1013.16 312.543 C 1007.366 317.952 1001.255 322.989 994.852 327.656 C 987.853 332.759 980.588 337.518 973.111 341.893 C 964.971 346.679 956.646 351.107 948.135 355.19 C 938.949 359.604 929.616 363.7 920.151 367.452 C 910.009 371.482 899.735 375.194 889.369 378.588 C 878.339 382.207 867.217 385.521 856.015 388.53 C 844.176 391.699 832.272 394.589 820.288 397.174 C 807.721 399.891 795.1 402.304 782.427 404.438 C 755.489 408.946 728.366 412.3 701.15 414.5 C 672.131 416.847 643.019 418.013 613.908 418 C 584.796 418.013 555.684 416.847 526.665 414.5 C 499.449 412.3 472.326 408.946 445.389 404.438 C 432.715 402.304 420.095 399.891 407.527 397.174 C 395.543 394.589 383.639 391.699 371.801 388.53 C 360.599 385.521 349.476 382.207 338.447 378.588 C 328.08 375.194 317.806 371.482 307.665 367.452 C 298.199 363.7 288.867 359.604 279.68 355.19 C 271.169 351.107 262.844 346.679 254.704 341.893 C 247.227 337.518 239.963 332.759 232.963 327.656 C 226.56 322.989 220.449 317.952 214.656 312.543 C 209.393 307.611 204.501 302.295 200.034 296.635 C 195.937 291.451 192.345 285.884 189.282 280.024 C 186.445 274.536 184.218 268.756 182.667 262.777 C 181.183 256.971 180.427 250.992 180.414 245 Z  M 181.739 245 C 181.753 239.114 182.495 233.255 183.953 227.554 C 185.478 221.668 187.665 215.981 190.462 210.586 C 193.472 204.806 197.024 199.304 201.068 194.187 C 205.495 188.58 210.334 183.303 215.57 178.425 C 221.311 173.056 227.382 168.045 233.745 163.418 C 240.705 158.341 247.93 153.608 255.38 149.247 C 263.48 144.488 271.779 140.073 280.25 136.003 C 289.41 131.602 298.716 127.519 308.155 123.781 C 318.27 119.764 328.517 116.052 338.858 112.672 C 349.861 109.066 360.97 105.752 372.145 102.756 C 383.957 99.587 395.848 96.711 407.806 94.126 C 420.347 91.421 432.954 88.995 445.614 86.874 C 472.512 82.367 499.595 79.013 526.771 76.826 C 555.764 74.479 584.822 73.313 613.908 73.326 C 642.993 73.313 672.052 74.479 701.044 76.826 C 728.22 79.013 755.304 82.367 782.201 86.874 C 794.862 88.995 807.469 91.421 820.009 94.126 C 831.967 96.711 843.858 99.587 855.67 102.756 C 866.845 105.752 877.955 109.066 888.958 112.672 C 899.298 116.052 909.545 119.764 919.66 123.781 C 929.099 127.519 938.405 131.602 947.565 136.003 C 956.036 140.073 964.335 144.488 972.435 149.247 C 979.885 153.608 987.11 158.341 994.07 163.418 C 1000.433 168.045 1006.505 173.056 1012.245 178.425 C 1017.481 183.303 1022.32 188.58 1026.748 194.187 C 1030.791 199.304 1034.344 204.806 1037.353 210.586 C 1040.15 215.981 1042.338 221.668 1043.862 227.554 C 1045.32 233.255 1046.063 239.114 1046.076 245 C 1046.063 250.886 1045.32 256.745 1043.862 262.446 C 1042.338 268.332 1040.15 274.019 1037.353 279.414 C 1034.344 285.194 1030.791 290.696 1026.748 295.813 C 1022.32 301.42 1017.481 306.697 1012.245 311.575 C 1006.505 316.944 1000.433 321.955 994.07 326.582 C 987.11 331.659 979.885 336.392 972.435 340.753 C 964.335 345.512 956.036 349.927 947.565 353.997 C 938.405 358.398 929.099 362.481 919.66 366.219 C 909.545 370.236 899.298 373.948 888.958 377.328 C 877.955 380.934 866.845 384.248 855.67 387.244 C 843.858 390.413 831.967 393.289 820.009 395.874 C 807.469 398.579 794.862 401.005 782.201 403.126 C 755.304 407.633 728.22 410.987 701.044 413.174 C 672.052 415.521 642.993 416.687 613.908 416.674 C 584.822 416.687 555.764 415.521 526.771 413.174 C 499.595 410.987 472.512 407.633 445.614 403.126 C 432.954 401.005 420.347 398.579 407.806 395.874 C 395.848 393.289 383.957 390.413 372.145 387.244 C 360.97 384.248 349.861 380.934 338.858 377.328 C 328.517 373.948 318.27 370.236 308.155 366.219 C 298.716 362.481 289.41 358.398 280.25 353.997 C 271.779 349.927 263.48 345.512 255.38 340.753 C 247.93 336.392 240.705 331.659 233.745 326.582 C 227.382 321.955 221.311 316.944 215.57 311.575 C 210.334 306.697 205.495 301.42 201.068 295.813 C 197.024 290.696 193.472 285.194 190.462 279.414 C 187.665 274.019 185.478 268.332 183.953 262.446 C 182.495 256.745 181.753 250.886 181.739 245 Z " fill-rule="evenodd" fill="rgb(0,0,0)"/><path d=" M 124.034 245 C 124.049 238.229 124.903 231.472 126.581 224.911 C 128.334 218.154 130.851 211.623 134.057 205.421 C 137.517 198.799 141.577 192.507 146.206 186.65 C 151.255 180.253 156.782 174.246 162.73 168.673 C 169.277 162.56 176.183 156.868 183.418 151.594 C 191.328 145.827 199.538 140.449 207.987 135.505 C 217.185 130.097 226.593 125.093 236.211 120.479 C 246.593 115.491 257.139 110.862 267.835 106.622 C 279.296 102.068 290.906 97.873 302.621 94.038 C 315.085 89.948 327.654 86.203 340.313 82.803 C 353.691 79.222 367.143 75.956 380.686 73.035 C 394.888 69.964 409.15 67.237 423.471 64.826 C 453.912 59.732 484.563 55.942 515.319 53.455 C 548.112 50.803 581.01 49.485 613.908 49.5 C 646.806 49.485 679.703 50.803 712.497 53.455 C 743.252 55.942 773.903 59.732 804.344 64.826 C 818.666 67.237 832.927 69.964 847.129 73.035 C 860.672 75.956 874.125 79.222 887.503 82.803 C 900.161 86.203 912.73 89.948 925.194 94.038 C 936.909 97.873 948.52 102.068 959.98 106.622 C 970.676 110.862 981.223 115.491 991.604 120.479 C 1001.222 125.093 1010.63 130.097 1019.828 135.505 C 1028.277 140.449 1036.487 145.827 1044.397 151.594 C 1051.633 156.868 1058.539 162.56 1065.085 168.673 C 1071.033 174.246 1076.561 180.253 1081.609 186.65 C 1086.238 192.507 1090.298 198.799 1093.759 205.421 C 1096.965 211.623 1099.481 218.154 1101.234 224.911 C 1102.912 231.472 1103.766 238.229 1103.781 245 C 1103.766 251.771 1102.912 258.528 1101.234 265.089 C 1099.481 271.846 1096.965 278.377 1093.759 284.579 C 1090.298 291.201 1086.238 297.493 1081.609 303.35 C 1076.561 309.747 1071.033 315.754 1065.085 321.327 C 1058.539 327.44 1051.633 333.132 1044.397 338.406 C 1036.487 344.173 1028.277 349.551 1019.828 354.495 C 1010.63 359.903 1001.222 364.907 991.604 369.521 C 981.223 374.509 970.676 379.138 959.98 383.378 C 948.52 387.932 936.909 392.127 925.194 395.962 C 912.73 400.052 900.161 403.797 887.503 407.197 C 874.125 410.778 860.672 414.044 847.129 416.965 C 832.927 420.036 818.666 422.763 804.344 425.174 C 773.903 430.268 743.252 434.058 712.497 436.545 C 679.703 439.197 646.806 440.515 613.908 440.5 C 581.01 440.515 548.112 439.197 515.319 436.545 C 484.563 434.058 453.912 430.268 423.471 425.174 C 409.15 422.763 394.888 420.036 380.686 416.965 C 367.143 414.044 353.691 410.778 340.313 407.197 C 327.654 403.797 315.085 400.052 302.621 395.962 C 290.906 392.127 279.296 387.932 267.835 383.378 C 257.139 379.138 246.593 374.509 236.211 369.521 C 226.593 364.907 217.185 359.903 207.987 354.495 C 199.538 349.551 191.328 344.173 183.418 338.406 C 176.183 333.132 169.277 327.44 162.73 321.327 C 156.782 315.754 151.255 309.747 146.206 303.35 C 141.577 297.493 137.517 291.201 134.057 284.579 C 130.851 278.377 128.334 271.846 126.581 265.089 C 124.903 258.528 124.049 251.771 124.034 245 Z  M 125.532 245 C 125.547 238.349 126.386 231.727 128.034 225.285 C 129.757 218.634 132.229 212.207 135.39 206.11 C 138.791 199.578 142.805 193.361 147.375 187.578 C 152.378 181.242 157.846 175.279 163.764 169.766 C 170.25 163.699 177.111 158.036 184.302 152.808 C 192.167 147.07 200.332 141.722 208.751 136.793 C 217.904 131.415 227.282 126.427 236.855 121.828 C 247.207 116.854 257.723 112.24 268.39 108.015 C 279.82 103.476 291.4 99.281 303.085 95.461 C 315.519 91.387 328.073 87.641 340.702 84.256 C 354.05 80.675 367.488 77.424 381.001 74.503 C 395.172 71.447 409.419 68.706 423.726 66.309 C 454.122 61.215 484.728 57.425 515.439 54.953 C 548.202 52.302 581.04 50.983 613.908 50.998 C 646.776 50.983 679.614 52.302 712.377 54.953 C 743.087 57.425 773.693 61.215 804.089 66.309 C 818.396 68.706 832.643 71.447 846.815 74.503 C 860.327 77.424 873.765 80.675 887.113 84.256 C 899.742 87.641 912.296 91.387 924.73 95.461 C 936.415 99.281 947.995 103.476 959.426 108.015 C 970.092 112.24 980.609 116.854 990.96 121.828 C 1000.533 126.427 1009.911 131.415 1019.064 136.793 C 1027.484 141.722 1035.648 147.07 1043.513 152.808 C 1050.704 158.036 1057.565 163.699 1064.052 169.766 C 1069.969 175.279 1075.437 181.242 1080.441 187.578 C 1085.01 193.361 1089.025 199.578 1092.425 206.11 C 1095.586 212.207 1098.058 218.634 1099.781 225.285 C 1101.429 231.727 1102.268 238.349 1102.283 245 C 1102.268 251.651 1101.429 258.273 1099.781 264.715 C 1098.058 271.366 1095.586 277.793 1092.425 283.89 C 1089.025 290.422 1085.01 296.639 1080.441 302.422 C 1075.437 308.758 1069.969 314.721 1064.052 320.234 C 1057.565 326.301 1050.704 331.964 1043.513 337.192 C 1035.648 342.93 1027.484 348.278 1019.064 353.207 C 1009.911 358.585 1000.533 363.573 990.96 368.172 C 980.609 373.146 970.092 377.76 959.426 381.985 C 947.995 386.524 936.415 390.719 924.73 394.539 C 912.296 398.613 899.742 402.359 887.113 405.744 C 873.765 409.325 860.327 412.576 846.815 415.497 C 832.643 418.553 818.396 421.294 804.089 423.691 C 773.693 428.785 743.087 432.575 712.377 435.047 C 679.614 437.698 646.776 439.017 613.908 439.002 C 581.04 439.017 548.202 437.698 515.439 435.047 C 484.728 432.575 454.122 428.785 423.726 423.691 C 409.419 421.294 395.172 418.553 381.001 415.497 C 367.488 412.576 354.05 409.325 340.702 405.744 C 328.073 402.359 315.519 398.613 303.085 394.539 C 291.4 390.719 279.82 386.524 268.39 381.985 C 257.723 377.76 247.207 373.146 236.855 368.172 C 227.282 363.573 217.904 358.585 208.751 353.207 C 200.332 348.278 192.167 342.93 184.302 337.192 C 177.111 331.964 170.25 326.301 163.764 320.234 C 157.846 314.721 152.378 308.758 147.375 302.422 C 142.805 296.639 138.791 290.422 135.39 283.89 C 132.229 277.793 129.757 271.366 128.034 264.715 C 126.386 258.273 125.547 251.651 125.532 245 Z " fill-rule="evenodd" fill="rgb(0,0,0)"/><path d=" M 65.149 245 C 65.166 237.415 66.123 229.846 68.002 222.496 C 69.966 214.927 72.785 207.611 76.376 200.663 C 80.253 193.246 84.801 186.197 89.986 179.636 C 95.642 172.47 101.834 165.741 108.496 159.498 C 115.83 152.651 123.566 146.274 131.672 140.367 C 140.532 133.906 149.729 127.881 159.193 122.343 C 169.497 116.285 180.036 110.68 190.81 105.511 C 202.44 99.923 214.254 94.738 226.236 89.988 C 239.074 84.887 252.08 80.188 265.203 75.892 C 279.165 71.31 293.245 67.115 307.425 63.306 C 322.411 59.295 337.481 55.636 352.652 52.364 C 368.561 48.924 384.537 45.87 400.58 43.168 C 434.68 37.462 469.015 33.216 503.468 30.43 C 540.203 27.46 577.055 25.983 613.908 26 C 650.76 25.983 687.612 27.46 724.347 30.43 C 758.8 33.216 793.135 37.462 827.235 43.168 C 843.279 45.87 859.255 48.924 875.164 52.364 C 890.334 55.636 905.404 59.295 920.39 63.306 C 934.57 67.115 948.65 71.31 962.612 75.892 C 975.736 80.188 988.741 84.887 1001.579 89.988 C 1013.561 94.738 1025.376 99.923 1037.005 105.511 C 1047.779 110.68 1058.318 116.285 1068.622 122.343 C 1078.087 127.881 1087.283 133.906 1096.144 140.367 C 1104.249 146.274 1111.985 152.651 1119.319 159.498 C 1125.981 165.741 1132.174 172.47 1137.829 179.636 C 1143.015 186.197 1147.562 193.246 1151.439 200.663 C 1155.03 207.611 1157.85 214.927 1159.813 222.496 C 1161.693 229.846 1162.649 237.415 1162.666 245 C 1162.649 252.585 1161.693 260.154 1159.813 267.504 C 1157.85 275.073 1155.03 282.389 1151.439 289.337 C 1147.562 296.754 1143.015 303.803 1137.829 310.364 C 1132.174 317.53 1125.981 324.26 1119.319 330.502 C 1111.985 337.349 1104.249 343.726 1096.144 349.633 C 1087.283 356.094 1078.087 362.119 1068.622 367.657 C 1058.318 373.715 1047.779 379.32 1037.005 384.489 C 1025.376 390.077 1013.561 395.262 1001.579 400.012 C 988.741 405.113 975.736 409.812 962.612 414.108 C 948.65 418.69 934.57 422.885 920.39 426.694 C 905.404 430.705 890.334 434.364 875.164 437.636 C 859.255 441.076 843.279 444.13 827.235 446.832 C 793.135 452.538 758.8 456.784 724.347 459.569 C 687.612 462.54 650.76 464.017 613.908 464 C 577.055 464.017 540.203 462.54 503.468 459.569 C 469.015 456.784 434.68 452.538 400.58 446.832 C 384.537 444.13 368.561 441.076 352.652 437.636 C 337.481 434.364 322.411 430.705 307.425 426.694 C 293.245 422.885 279.165 418.69 265.203 414.108 C 252.08 409.812 239.074 405.113 226.236 400.012 C 214.254 395.262 202.44 390.077 190.81 384.489 C 180.036 379.32 169.497 373.715 159.193 367.657 C 149.729 362.119 140.532 356.094 131.672 349.633 C 123.566 343.726 115.83 337.349 108.496 330.502 C 101.834 324.26 95.642 317.53 89.986 310.364 C 84.801 303.803 80.253 296.754 76.376 289.337 C 72.785 282.389 69.966 275.073 68.002 267.504 C 66.123 260.154 65.166 252.585 65.149 245 Z  M 66.828 245 C 66.844 237.549 67.784 230.132 69.63 222.915 C 71.56 215.464 74.329 208.265 77.87 201.435 C 81.679 194.118 86.177 187.154 91.295 180.676 C 96.9 173.578 103.025 166.898 109.654 160.723 C 116.921 153.926 124.607 147.583 132.662 141.726 C 141.472 135.299 150.618 129.308 160.049 123.787 C 170.303 117.762 180.808 112.174 191.532 107.022 C 203.128 101.45 214.908 96.281 226.857 91.549 C 239.661 86.464 252.633 81.765 265.723 77.486 C 279.652 72.922 293.715 68.726 307.862 64.933 C 322.814 60.923 337.867 57.281 353.004 54.009 C 368.88 50.585 384.839 47.514 400.865 44.829 C 434.915 39.123 469.2 34.878 503.602 32.109 C 540.304 29.138 577.089 27.662 613.908 27.678 C 650.726 27.662 687.512 29.138 724.213 32.109 C 758.615 34.878 792.9 39.123 826.95 44.829 C 842.976 47.514 858.936 50.585 874.811 54.009 C 889.948 57.281 905.001 60.923 919.954 64.933 C 934.101 68.726 948.164 72.922 962.092 77.486 C 975.182 81.765 988.154 86.464 1000.958 91.549 C 1012.907 96.281 1024.688 101.45 1036.284 107.022 C 1047.007 112.174 1057.512 117.762 1067.766 123.787 C 1077.197 129.308 1086.343 135.299 1095.154 141.726 C 1103.209 147.583 1110.895 153.926 1118.161 160.723 C 1124.79 166.898 1130.915 173.578 1136.52 180.676 C 1141.639 187.154 1146.136 194.118 1149.945 201.435 C 1153.486 208.265 1156.255 215.464 1158.185 222.915 C 1160.031 230.132 1160.971 237.549 1160.988 245 C 1160.971 252.451 1160.031 259.868 1158.185 267.085 C 1156.255 274.536 1153.486 281.735 1149.945 288.565 C 1146.136 295.882 1141.639 302.846 1136.52 309.324 C 1130.915 316.422 1124.79 323.102 1118.161 329.277 C 1110.895 336.074 1103.209 342.417 1095.154 348.274 C 1086.343 354.701 1077.197 360.692 1067.766 366.214 C 1057.512 372.238 1047.007 377.826 1036.284 382.978 C 1024.688 388.55 1012.907 393.719 1000.958 398.451 C 988.154 403.536 975.182 408.235 962.092 412.514 C 948.164 417.079 934.101 421.274 919.954 425.067 C 905.001 429.077 889.948 432.719 874.811 435.991 C 858.936 439.415 842.976 442.486 826.95 445.171 C 792.9 450.877 758.615 455.122 724.213 457.891 C 687.512 460.862 650.726 462.338 613.908 462.322 C 577.089 462.338 540.304 460.862 503.602 457.891 C 469.2 455.122 434.915 450.877 400.865 445.171 C 384.839 442.486 368.88 439.415 353.004 435.991 C 337.867 432.719 322.814 429.077 307.862 425.067 C 293.715 421.274 279.652 417.079 265.723 412.514 C 252.633 408.235 239.661 403.536 226.857 398.451 C 214.908 393.719 203.128 388.55 191.532 382.978 C 180.808 377.826 170.303 372.238 160.049 366.214 C 150.618 360.692 141.472 354.701 132.662 348.274 C 124.607 342.417 116.921 336.074 109.654 329.277 C 103.025 323.102 96.9 316.422 91.295 309.324 C 86.177 302.846 81.679 295.882 77.87 288.565 C 74.329 281.735 71.56 274.536 69.63 267.085 C 67.784 259.868 66.844 252.451 66.828 245 Z " fill-rule="evenodd" fill="rgb(0,0,0)"/><path d=" M 0 245 C 0.019 236.514 1.089 228.047 3.192 219.824 C 5.388 211.357 8.542 203.172 12.56 195.399 C 16.897 187.101 21.984 179.216 27.785 171.876 C 34.112 163.859 41.04 156.331 48.493 149.347 C 56.697 141.687 65.352 134.553 74.42 127.945 C 84.333 120.717 94.621 113.977 105.209 107.781 C 116.736 101.004 128.526 94.733 140.579 88.951 C 153.59 82.699 166.806 76.898 180.211 71.585 C 194.573 65.878 209.123 60.621 223.804 55.815 C 239.424 50.69 255.175 45.996 271.039 41.735 C 287.804 37.248 304.663 33.155 321.635 29.494 C 339.433 25.645 357.306 22.228 375.253 19.206 C 413.402 12.823 451.813 8.073 490.356 4.956 C 531.453 1.633 572.68 -0.019 613.908 0 C 655.135 -0.019 696.363 1.633 737.459 4.956 C 776.002 8.073 814.413 12.823 852.562 19.206 C 870.51 22.228 888.383 25.645 906.18 29.494 C 923.152 33.155 940.011 37.248 956.776 41.735 C 972.64 45.996 988.391 50.69 1004.011 55.815 C 1018.692 60.621 1033.242 65.878 1047.604 71.585 C 1061.009 76.898 1074.226 82.699 1087.236 88.951 C 1099.289 94.733 1111.079 101.004 1122.606 107.781 C 1133.195 113.977 1143.483 120.717 1153.395 127.945 C 1162.463 134.553 1171.118 141.687 1179.322 149.347 C 1186.776 156.331 1193.703 163.859 1200.03 171.876 C 1205.831 179.216 1210.919 187.101 1215.256 195.399 C 1219.273 203.172 1222.427 211.357 1224.624 219.824 C 1226.726 228.047 1227.797 236.514 1227.815 245 C 1227.797 253.486 1226.726 261.953 1224.624 270.176 C 1222.427 278.643 1219.273 286.828 1215.256 294.601 C 1210.919 302.899 1205.831 310.784 1200.03 318.124 C 1193.703 326.141 1186.776 333.669 1179.322 340.653 C 1171.118 348.313 1162.463 355.447 1153.395 362.055 C 1143.483 369.283 1133.195 376.023 1122.606 382.219 C 1111.079 388.996 1099.289 395.267 1087.236 401.049 C 1074.226 407.301 1061.009 413.102 1047.604 418.415 C 1033.242 424.122 1018.692 429.379 1004.011 434.185 C 988.391 439.31 972.64 444.004 956.776 448.265 C 940.011 452.752 923.152 456.845 906.18 460.506 C 888.383 464.355 870.51 467.772 852.562 470.794 C 814.413 477.177 776.002 481.927 737.459 485.043 C 696.363 488.367 655.135 490.019 613.908 490 C 572.68 490.019 531.453 488.367 490.356 485.043 C 451.813 481.927 413.402 477.177 375.253 470.794 C 357.306 467.772 339.433 464.355 321.635 460.506 C 304.663 456.845 287.804 452.752 271.039 448.265 C 255.175 444.004 239.424 439.31 223.804 434.185 C 209.123 429.379 194.573 424.122 180.211 418.415 C 166.806 413.102 153.59 407.301 140.579 401.049 C 128.526 395.267 116.736 388.996 105.209 382.219 C 94.621 376.023 84.333 369.283 74.42 362.055 C 65.352 355.447 56.697 348.313 48.493 340.653 C 41.04 333.669 34.112 326.141 27.785 318.124 C 21.984 310.784 16.897 302.899 12.56 294.601 C 8.542 286.828 5.388 278.643 3.192 270.176 C 1.089 261.953 0.019 253.486 0 245 Z  M 1.877 245 C 1.896 236.664 2.948 228.366 5.013 220.293 C 7.172 211.958 10.269 203.904 14.231 196.263 C 18.492 188.077 23.524 180.286 29.25 173.04 C 35.52 165.098 42.373 157.626 49.788 150.717 C 57.918 143.114 66.516 136.017 75.528 129.465 C 85.384 122.275 95.616 115.572 106.167 109.396 C 117.637 102.656 129.39 96.404 141.386 90.641 C 154.359 84.408 167.539 78.625 180.906 73.331 C 195.23 67.643 209.742 62.386 224.386 57.599 C 239.968 52.492 255.701 47.799 271.527 43.556 C 288.255 39.069 305.095 34.995 322.029 31.334 C 339.789 27.504 357.643 24.068 375.573 21.065 C 413.665 14.681 452.02 9.932 490.507 6.834 C 531.565 3.511 572.718 1.859 613.908 1.878 C 655.098 1.859 696.25 3.511 737.309 6.834 C 775.795 9.932 814.15 14.681 852.243 21.065 C 870.172 24.068 888.026 27.504 905.786 31.334 C 922.72 34.995 939.56 39.069 956.288 43.556 C 972.114 47.799 987.847 52.492 1003.429 57.599 C 1018.073 62.386 1032.585 67.643 1046.91 73.331 C 1060.277 78.625 1073.456 84.408 1086.429 90.641 C 1098.425 96.404 1110.178 102.656 1121.649 109.396 C 1132.2 115.572 1142.431 122.275 1152.288 129.465 C 1161.299 136.017 1169.898 143.114 1178.027 150.717 C 1185.443 157.626 1192.295 165.098 1198.565 173.04 C 1204.292 180.286 1209.323 188.077 1213.585 196.263 C 1217.546 203.904 1220.644 211.958 1222.803 220.293 C 1224.868 228.366 1225.919 236.664 1225.938 245 C 1225.919 253.336 1224.868 261.634 1222.803 269.707 C 1220.644 278.042 1217.546 286.096 1213.585 293.737 C 1209.323 301.923 1204.292 309.714 1198.565 316.96 C 1192.295 324.902 1185.443 332.374 1178.027 339.283 C 1169.898 346.886 1161.299 353.983 1152.288 360.535 C 1142.431 367.725 1132.2 374.428 1121.649 380.604 C 1110.178 387.344 1098.425 393.596 1086.429 399.359 C 1073.456 405.592 1060.277 411.375 1046.91 416.669 C 1032.585 422.357 1018.073 427.614 1003.429 432.401 C 987.847 437.508 972.114 442.201 956.288 446.444 C 939.56 450.931 922.72 455.005 905.786 458.666 C 888.026 462.496 870.172 465.932 852.243 468.935 C 814.15 475.319 775.795 480.068 737.309 483.166 C 696.25 486.489 655.098 488.141 613.908 488.122 C 572.718 488.141 531.565 486.489 490.507 483.166 C 452.02 480.068 413.665 475.319 375.573 468.935 C 357.643 465.932 339.789 462.496 322.029 458.666 C 305.095 455.005 288.255 450.931 271.527 446.444 C 255.701 442.201 239.968 437.508 224.386 432.401 C 209.742 427.614 195.23 422.357 180.906 416.669 C 167.539 411.375 154.359 405.592 141.386 399.359 C 129.39 393.596 117.637 387.344 106.167 380.604 C 95.616 374.428 85.384 367.725 75.528 360.535 C 66.516 353.983 57.918 346.886 49.788 339.283 C 42.373 332.374 35.52 324.902 29.25 316.96 C 23.524 309.714 18.492 301.923 14.231 293.737 C 10.269 286.096 7.172 278.042 5.013 269.707 C 2.948 261.634 1.896 253.336 1.877 245 Z " fill-rule="evenodd" fill="rgb(0,0,0)"/></g></svg>