<?xml version="1.0" encoding="UTF-8" standalone="no"?><!-- Generator: Gravit.io --><svg xmlns="http://www.w3.org/2000/svg" xmlns:xlink="http://www.w3.org/1999/xlink" style="isolation:isolate" viewBox="0 0 778 778" width="778pt" height="778pt"><defs><clipPath id="_clipPath_uZoTeqbxl1mL68WX9feIosTEtmyVJUk8"><rect width="778" height="778"/></clipPath></defs><g clip-path="url(#_clipPath_uZoTeqbxl1mL68WX9feIosTEtmyVJUk8)"><clipPath id="_clipPath_JwzGJ7pEV2WTwadsuS5bbsax0sRDfpuC"><rect x="1" y="1" width="776" height="776" transform="matrix(1,0,0,1,0,0)" fill="rgb(255,255,255)"/></clipPath><g clip-path="url(#_clipPath_JwzGJ7pEV2WTwadsuS5bbsax0sRDfpuC)"><g><g><g><path d=" M 752.14 266.787 C 753.8 271.86 755.35 276.933 756.79 282.026 C 760.65 295.641 763.72 309.307 766.04 322.982 C 766.69 326.802 767.29 330.622 767.81 334.441 C 770.04 350.503 771.25 366.564 771.44 382.515 C 771.48 385.252 771.48 387.979 771.46 390.696 C 771.36 402.928 770.66 415.099 769.41 427.15 C 769.16 429.456 768.91 431.752 768.63 434.038 C 768.2 437.587 767.72 441.116 767.19 444.645 C 766.88 446.681 766.56 448.716 766.22 450.751 C 765.99 452.135 765.76 453.508 765.51 454.872 C 765.47 455.122 765.42 455.353 765.38 455.594 C 765.12 457.098 764.83 458.591 764.55 460.085 C 764.49 460.386 764.44 460.667 764.38 460.967 C 764.08 462.471 763.78 463.975 763.47 465.489 C 763.41 465.75 763.36 466.031 763.3 466.301 C 763.02 467.635 762.74 468.968 762.44 470.292 C 762.01 472.267 761.56 474.242 761.1 476.217 C 760.55 478.493 760 480.769 759.41 483.034 C 753.93 504.409 746.64 525.233 737.68 545.285 L 737.68 545.295 C 730.8 560.644 722.95 575.533 714.16 589.87 C 668.12 664.863 596.4 724.547 506.43 754.173 C 418.76 783.048 328.17 778.636 248.28 747.857 L 248.27 747.847 C 230.75 741.099 213.74 733.069 197.42 723.855 L 197.42 723.845 C 177.48 712.626 158.55 699.633 140.85 684.995 C 133.11 678.598 125.6 671.881 118.35 664.863 C 117.88 664.402 117.4 663.951 116.94 663.469 C 116.02 662.567 115.1 661.665 114.19 660.752 C 111.03 657.614 107.94 654.426 104.9 651.158 C 101.81 647.849 98.78 644.47 95.8 641.062 C 94.72 639.818 93.65 638.575 92.59 637.312 C 87.29 631.056 82.19 624.629 77.28 618.012 C 68.73 606.523 60.79 594.472 53.5 581.909 L 53.5 581.899 C 50.72 577.107 48.03 572.234 45.44 567.281 C 42.61 561.898 39.9 556.393 37.31 550.829 L 37.31 550.819 C 37.04 550.238 36.78 549.666 36.51 549.085 C 31.46 538.106 26.89 526.807 22.85 515.167 C 21.98 512.731 21.15 510.255 20.34 507.778 C 14.91 491.195 10.65 474.512 7.53 457.809 L 7.53 457.799 C 6.88 454.27 6.27 450.751 5.72 447.232 C 5.33 444.746 4.96 442.259 4.61 439.773 C 4.54 439.332 4.49 438.891 4.43 438.449 C 4.03 435.522 3.67 432.604 3.35 429.677 C 2.73 424.082 2.24 418.498 1.87 412.904 L 1.87 412.894 C 1.02 400.391 0.8 387.949 1.18 375.567 C 1.69 358.293 3.38 341.169 6.18 324.315 C 6.34 323.373 6.5 322.42 6.66 321.488 C 8.74 309.417 11.4 297.496 14.61 285.736 C 16.05 280.472 17.59 275.239 19.25 270.045 C 27.77 243.307 39.17 217.57 53.19 193.338 C 61.63 178.75 71.03 164.694 81.34 151.299 C 89.09 141.223 97.34 131.498 106.08 122.194 C 148.69 76.837 202.87 41.206 266.06 20.392 C 343.04 -4.963 422.28 -4.653 494.56 16.642 C 498.35 17.745 502.12 18.918 505.87 20.161 C 517.05 23.831 528.05 28.002 538.83 32.674 C 548.54 36.884 558.08 41.476 567.41 46.469 C 579.67 53.006 591.58 60.225 603.09 68.075 C 610.79 73.308 618.3 78.853 625.61 84.648 C 630.66 88.668 635.63 92.809 640.48 97.09 C 647.14 102.925 653.6 109.01 659.85 115.327 C 659.97 115.447 660.08 115.567 660.2 115.678 C 660.3 115.778 660.4 115.888 660.5 115.988 C 660.7 116.189 660.9 116.379 661.08 116.58 C 669.22 124.871 677 133.554 684.4 142.627 C 700.78 162.669 715.27 184.555 727.54 208.126 C 736.23 224.819 743.82 242.364 750.14 260.671 C 750.79 262.737 751.48 264.762 752.14 266.787 Z " fill="rgb(219,169,149)"/><path d=" M 684.35 142.677 C 669.31 162.278 645.18 190.109 607.77 229.401 C 447.97 397.293 275.13 359.175 174.48 372.098 C 130.24 377.773 89.28 398.206 53.66 418.779 C 36.31 428.805 20.23 438.861 5.66 447.262 C 5.27 444.776 4.9 442.289 4.55 439.803 C 4.48 439.362 4.43 438.921 4.37 438.48 C 3.97 435.552 3.61 432.634 3.29 429.707 C 2.67 424.112 2.18 418.528 1.81 412.934 L 1.81 412.924 C 26.14 398.246 55.19 380.871 85.16 361.07 C 179.65 298.599 467.5 296.814 530.26 220.548 C 551.12 195.172 575.28 173.647 598.2 156.222 C 621.75 138.306 644.03 124.721 660.15 115.728 C 662.34 114.505 659.09 117.673 661.04 116.63 C 659.27 118.094 662.82 115.226 661.04 116.63 C 669.17 124.921 676.95 133.604 684.35 142.677 Z " fill="rgb(249,191,172)"/><path d=" M 659.85 116.58 C 658.95 117.141 658.65 117.161 657.75 117.723 C 647.87 123.829 638.03 129.603 628.25 135.047 C 604.51 148.272 581.04 159.651 557.95 169.496 C 554.17 171.11 550.39 172.674 546.63 174.208 C 521.72 184.355 497.28 192.746 473.42 199.744 C 467.83 201.398 462.28 202.963 456.76 204.456 C 429.04 212.006 402.19 217.791 376.41 222.443 C 301.7 235.958 270.49 240.77 218.99 250.876 C 197.17 255.157 173.63 261.373 149.67 268.712 C 103.16 282.959 55.03 301.436 14.77 318.129 C 12 319.272 9.28 320.415 6.59 321.538 C 8.67 309.467 11.33 297.546 14.54 285.786 C 30.21 277.825 46.69 269.354 63.57 260.441 C 68.6 257.774 73.67 255.087 78.76 252.34 C 97.45 242.294 121.45 232.88 148.99 223.856 C 195.91 208.507 253.13 194.33 311.88 180.234 C 316.99 179.011 322.12 177.788 327.24 176.554 C 392.55 160.954 458.84 145.344 514.21 128.24 C 532.45 122.615 549.52 116.81 564.97 110.795 C 582.21 104.078 609.641 89.397 622.281 82.068 C 629.594 86.58 661.82 115.357 659.85 116.58 Z " fill="rgb(119,79,68)"/><path d=" M 538.77 32.724 C 533.28 36.604 527.38 40.674 521.05 44.935 C 434.8 103.175 358.2 125.302 302.21 134.646 C 266.76 140.572 239.57 141.364 223.43 142.958 C 193.19 145.956 109.26 158.267 81.28 151.339 C 89.03 141.264 97.28 131.538 106.02 122.234 C 174.19 105.852 327.78 120.5 426.23 59.413 C 452.37 43.201 475.05 28.984 494.51 16.682 C 498.3 17.785 502.07 18.958 505.82 20.201 C 517 23.881 527.99 28.052 538.77 32.724 Z " fill="rgb(158,114,99)"/><path d=" M 756.79 282.016 C 760.65 295.631 763.72 309.297 766.04 322.972 C 750.46 334.993 731.17 348.227 708.93 362.032 C 708.92 362.032 708.92 362.032 708.91 362.043 C 599.21 430.088 417.92 511.728 257.73 528.532 C 188.19 535.83 143.57 536.282 112.83 536.221 L 112.82 536.221 C 70.8 536.131 54.73 535.068 36.47 549.125 C 31.42 538.146 26.85 526.847 22.81 515.207 C 60.65 483.846 99.08 460.376 283.8 461.86 C 477.91 463.414 667.17 328.997 756.79 282.016 Z " fill="rgb(119,79,68)"/><path d=" M 750.09 260.721 C 736.11 269.644 720.86 278.718 704.4 287.721 C 682.89 299.511 659.35 311.191 633.99 322.34 C 632.68 322.922 631.36 323.493 630.03 324.065 C 463.12 396.531 114.29 461.248 7.48 457.849 L 7.48 457.839 C 6.83 454.31 6.22 450.791 5.67 447.272 C 5.28 444.786 4.91 442.299 4.56 439.813 C 4.49 439.372 4.44 438.931 4.38 438.49 C 3.98 435.562 3.62 432.644 3.3 429.717 C 15.45 426.428 32.98 422.699 53.66 418.779 C 146.12 401.274 301.72 380.049 322.03 378.254 C 377.59 373.362 506.48 348.197 694.34 228.639 C 706.09 221.159 717.13 214.352 727.5 208.166 C 736.18 224.869 743.76 242.414 750.09 260.721 Z " fill="rgb(158,114,99)"/><path d=" M 768.62 434.028 C 768.19 437.577 767.71 441.106 767.18 444.635 C 766.87 446.671 766.55 448.706 766.21 450.741 C 765.98 452.125 765.75 453.498 765.5 454.862 C 765.46 455.112 765.41 455.343 765.37 455.584 C 765.11 457.087 764.82 458.581 764.54 460.075 C 764.48 460.376 764.43 460.657 764.37 460.957 C 764.07 462.461 763.77 463.965 763.46 465.479 C 763.4 465.74 763.35 466.021 763.29 466.291 C 763.01 467.625 762.73 468.958 762.43 470.281 C 762 472.257 761.55 474.232 761.09 476.207 C 756.06 480.367 750.32 484.759 743.97 489.341 C 655.68 553.055 447.47 653.664 317.41 672.844 C 268.65 680.022 201.73 684.123 140.83 685.005 C 133.09 678.608 125.58 671.891 118.33 664.873 C 117.86 664.412 117.38 663.961 116.92 663.479 C 116 662.577 115.08 661.675 114.17 660.762 C 111.01 657.624 107.92 654.436 104.88 651.168 C 115.02 651.448 126.54 651.539 139.26 651.268 C 142.91 651.198 146.67 651.098 150.51 650.957 C 181.52 649.874 218.65 646.676 259.69 639.447 C 259.7 639.447 259.72 639.447 259.73 639.447 L 259.76 639.437 C 292.81 633.622 328.36 625.191 365.27 613.14 L 365.29 613.13 C 403.22 600.748 442.57 584.536 482.04 563.412 C 487.22 560.644 492.4 557.787 497.58 554.839 C 505.94 550.087 514.15 545.485 522.19 541.024 C 549.29 526.005 574.57 512.621 597.93 500.84 L 597.96 500.83 C 670.89 464.045 725 442.871 756.63 436.043 C 761.08 435.111 765.08 434.429 768.62 434.028 Z " fill="rgb(119,79,68)"/><path d=" M 737.67 545.295 C 730.79 560.644 722.94 575.533 714.15 589.87 C 649.38 628.76 576.1 668.252 517.59 692.865 C 437.35 726.612 325.42 743.586 248.26 747.867 L 248.25 747.857 C 230.73 741.109 213.72 733.079 197.4 723.865 C 208.38 721.008 222 717.94 238.51 714.681 C 377.51 687.231 669.02 593.349 737.67 545.295 Z " fill="rgb(158,114,99)"/><path d=" M 771.46 390.686 C 771.36 402.918 770.66 415.089 769.41 427.14 C 765.63 429.948 761.38 432.925 756.63 436.073 C 745.32 443.573 731.21 452.055 713.88 461.539 C 713.87 461.539 713.87 461.539 713.86 461.549 C 695.93 471.374 674.58 482.272 649.4 494.293 C 637.77 499.848 625.43 505.181 612.56 510.295 C 584.55 521.453 553.95 531.64 522.19 541.064 C 466.98 557.456 408.34 571.512 353.97 584.235 C 353.96 584.235 353.95 584.245 353.95 584.245 C 273.44 603.064 202.31 618.955 165.59 635.106 C 157.31 638.766 150.77 642.425 146.28 646.135 C 144.17 647.869 141.83 649.584 139.26 651.298 C 135.3 653.945 130.84 656.542 125.95 659.078 C 123.07 660.582 120.05 662.056 116.92 663.509 C 116 662.607 115.08 661.705 114.17 660.792 C 111.01 657.654 107.92 654.466 104.88 651.198 C 101.79 647.889 98.76 644.511 95.78 641.102 C 94.7 639.859 93.63 638.615 92.57 637.352 C 115.15 628.64 140.17 619.356 166.3 610.232 C 171.15 608.538 176.03 606.864 180.96 605.179 L 180.97 605.179 C 242.15 584.355 307.88 565.276 361.76 557.346 C 369.88 556.143 378.26 554.549 386.87 552.604 C 386.9 552.594 386.92 552.594 386.95 552.584 C 462.92 535.459 556.47 491.246 633.09 453.328 C 699.15 420.634 752.64 392.611 771.46 390.686 Z " fill="rgb(249,191,172)"/></g></g></g></g></g></svg>