<?xml version="1.0" encoding="UTF-8" standalone="no"?><!-- Generator: Gravit.io --><svg xmlns="http://www.w3.org/2000/svg" xmlns:xlink="http://www.w3.org/1999/xlink" style="isolation:isolate" viewBox="0 0 364 364" width="364pt" height="364pt"><defs><clipPath id="_clipPath_KKq9GsDPgSO5VzK43h08Eko0q5HETHS5"><rect width="364" height="364"/></clipPath></defs><g clip-path="url(#_clipPath_KKq9GsDPgSO5VzK43h08Eko0q5HETHS5)"><g><g><g><path d=" M 362.87 182.005 C 362.87 182.625 362.86 183.245 362.86 183.865 C 362.81 189.405 362.5 194.885 361.95 200.295 C 358.63 233.415 346.37 263.895 327.62 289.305 C 322.57 296.135 317.06 302.605 311.13 308.655 C 307 312.865 302.65 316.885 298.13 320.675 C 296.16 322.335 294.15 323.945 292.11 325.515 C 273.63 339.705 252.35 350.415 229.23 356.635 C 229.22 356.645 229.22 356.635 229.22 356.635 C 219.76 359.185 210 360.995 200 361.975 C 194.08 362.565 188.08 362.865 182.01 362.865 C 181.73 362.865 181.47 362.865 181.19 362.855 L 181.18 362.855 C 175.69 362.835 170.25 362.565 164.89 362.065 C 138.72 359.605 114.18 351.575 92.46 339.165 C 92.08 338.955 91.7 338.735 91.33 338.525 C 80.45 332.215 70.29 324.805 61.01 316.435 C 53.69 309.845 46.91 302.665 40.75 294.965 C 29.98 281.515 21.09 266.485 14.48 250.295 C 13.42 247.725 12.43 245.115 11.5 242.485 C 11.5 242.485 11.5 242.485 11.5 242.475 C 10.93 240.895 10.39 239.305 9.87 237.705 C 4.2 220.155 1.13 201.435 1.13 181.995 C 1.13 179.595 1.18 177.215 1.27 174.835 C 2.12 153.035 6.83 132.215 14.73 113.065 C 15.17 112.005 15.62 110.935 16.08 109.885 C 21.26 97.965 27.7 86.715 35.22 76.305 C 47.49 59.285 62.65 44.495 79.97 32.645 C 109.01 12.765 144.14 1.135 181.99 1.135 C 229.73 1.135 273.15 19.635 305.48 49.865 C 319.36 62.835 331.19 77.975 340.43 94.735 C 351.19 114.215 358.45 135.875 361.38 158.895 C 362.37 166.465 362.87 174.185 362.87 182.005 Z " fill="rgb(181,51,26)"/><path d=" M 298.12 320.675 C 296.15 322.335 294.14 323.945 292.1 325.515 C 273.62 339.705 252.34 350.415 229.22 356.635 C 229.21 356.645 229.21 356.635 229.21 356.635 C 214.97 347.785 221.43 328.255 211.08 314.235 C 189.48 284.985 224.14 281.185 252.82 285.955 C 276.25 289.865 294.21 304.295 298.12 320.675 Z " fill="rgb(153,36,20)"/><path d=" M 157.52 83.255 C 156.15 91.485 145.75 96.605 134.3 94.705 C 122.84 92.795 127.53 82.925 122.58 76.215 C 113.95 64.535 127.8 63.015 139.26 64.915 C 150.7 66.815 158.88 75.025 157.52 83.255 Z " fill="rgb(153,36,20)"/><path d=" M 317.54 282.955 C 316.17 291.185 305.78 296.305 294.32 294.405 C 282.86 292.495 287.55 282.625 282.6 275.915 C 273.97 264.235 287.82 262.715 299.28 264.615 C 310.73 266.515 318.91 274.735 317.54 282.955 Z " fill="rgb(153,36,20)"/><path d=" M 213.04 255.625 C 194.66 246.525 190.03 218.405 202.7 192.815 C 215.37 167.215 235.26 185.305 254.58 178.445 C 288.23 166.495 281.92 200.155 269.25 225.755 C 256.58 251.335 231.42 264.715 213.04 255.625 Z " fill="rgb(153,36,20)"/><path d=" M 76.8 109.855 C 54.47 104.635 34.21 122.675 16.09 109.905 C 21.27 97.985 27.71 86.735 35.23 76.325 C 47.5 59.305 62.66 44.515 79.98 32.665 C 83.3 36.355 86.4 40.415 89.23 44.815 C 109.89 76.925 123.3 120.705 76.8 109.855 Z " fill="rgb(153,36,20)"/><path d=" M 362.86 183.865 C 362.86 183.865 362.86 183.865 362.86 183.865 C 352.08 182.765 340.86 178.775 329.37 171.195 C 268.39 130.925 225.51 197.425 225.51 142.035 C 225.51 100.725 258.44 65.255 305.49 49.875 C 319.37 62.845 331.2 77.985 340.44 94.745 C 351.2 114.225 358.46 135.885 361.39 158.905 C 362.44 167.065 362.95 175.395 362.86 183.865 Z " fill="rgb(153,36,20)"/><path d=" M 181.89 362.415 C 181.65 362.565 181.42 362.715 181.19 362.865 L 181.18 362.865 C 175.69 362.845 170.25 362.575 164.89 362.075 C 138.72 359.615 114.18 351.585 92.46 339.175 C 128.67 321.005 179.69 301.085 177.9 321.685 C 176.1 342.345 157.11 354.775 181.89 362.415 Z " fill="rgb(153,36,20)"/><path d=" M 140.72 135.795 C 140.72 153.935 119.76 188.425 95.07 172.125 C 75.11 158.945 61.07 180.715 61.07 162.575 C 61.07 144.435 80.46 129.735 104.39 129.735 C 128.32 129.735 140.72 117.655 140.72 135.795 Z " fill="rgb(153,36,20)"/></g></g></g></g></svg>