<?xml version="1.0" encoding="UTF-8" standalone="no"?><!-- Generator: Gravit.io --><svg xmlns="http://www.w3.org/2000/svg" xmlns:xlink="http://www.w3.org/1999/xlink" style="isolation:isolate" viewBox="0 0 248 248" width="248pt" height="248pt"><defs><clipPath id="_clipPath_IDwliVbhVFNrgb5YB7GCWpXOdcWcRqE1"><rect width="248" height="248"/></clipPath></defs><g clip-path="url(#_clipPath_IDwliVbhVFNrgb5YB7GCWpXOdcWcRqE1)"><clipPath id="_clipPath_dAgp7YvePJ58JQBaDRoq0RHyGc5pm6c7"><rect x="1" y="1" width="246" height="246" transform="matrix(1,0,0,1,0,0)" fill="rgb(255,255,255)"/></clipPath><g clip-path="url(#_clipPath_dAgp7YvePJ58JQBaDRoq0RHyGc5pm6c7)"><g><g><g><g><path d=" M 248.2 124.595 C 248.2 128.809 247.988 132.983 247.575 137.096 C 245.306 159.73 236.927 180.56 224.112 197.921 L 224.112 197.921 C 217.216 207.257 209.038 215.595 199.843 222.662 C 182.057 236.323 160.449 245.256 136.896 247.585 C 132.853 247.988 128.749 248.19 124.605 248.19 C 120.663 248.19 116.761 248.008 112.909 247.645 C 94.72 245.931 77.67 240.285 62.636 231.554 C 55.205 227.239 48.258 222.178 41.916 216.462 C 25.945 202.075 13.745 183.595 6.979 162.664 C 3.097 150.677 1 137.883 1 124.595 C 1 107.919 4.307 92.01 10.296 77.492 C 13.987 68.539 18.705 60.121 24.291 52.368 C 46.736 21.255 83.296 1 124.595 1 C 171.228 1 211.831 26.83 232.874 64.96 C 240.225 78.268 245.185 93.079 247.192 108.806 C 247.857 113.979 248.2 119.241 248.2 124.595 Z " fill="rgb(198,173,147)"/><path d=" M 182.843 46.873 C 180.504 60.947 162.718 69.709 143.117 66.452 C 123.516 63.196 131.532 46.298 123.062 34.825 C 108.301 14.843 131.986 12.241 151.587 15.498 C 171.188 18.754 185.183 32.799 182.843 46.873 Z " fill="rgb(119,104,81)"/><path d=" M 33.134 107.193 C 32.196 112.819 25.098 116.318 17.264 115.017 C 9.429 113.716 12.636 106.961 9.248 102.384 C 3.349 94.399 12.817 93.361 20.641 94.661 C 28.486 95.962 34.072 101.568 33.134 107.193 Z " fill="rgb(119,104,81)"/><path d=" M 163.504 158.843 C 162.567 164.469 155.468 167.967 147.634 166.667 C 139.8 165.366 143.006 158.611 139.618 154.034 C 133.72 146.049 143.188 145.011 151.012 146.311 C 158.846 147.612 164.442 153.218 163.504 158.843 Z " fill="rgb(119,104,81)"/><path d=" M 93.096 59.233 C 92.159 64.859 85.06 68.358 77.226 67.057 C 69.392 65.756 72.598 59.002 69.21 54.424 C 63.312 46.439 72.779 45.401 80.604 46.702 C 88.438 48.002 94.034 53.608 93.096 59.233 Z " fill="rgb(119,104,81)"/><path d=" M 199.843 222.652 C 182.057 236.313 160.449 245.246 136.896 247.575 C 135.676 241.031 134.799 233.974 130.433 228.066 C 111.911 202.982 141.635 199.716 166.237 203.809 C 180.877 206.249 193.027 213.477 199.843 222.652 Z " fill="rgb(119,104,81)"/><path d=" M 74.272 174.198 C 63.14 189.271 73.677 211.451 47.935 215.736 C 45.909 216.069 43.902 216.31 41.916 216.462 C 25.945 202.075 13.745 183.595 6.979 162.664 C 14.36 155.92 24.775 150.818 36.814 148.822 C 62.545 144.537 93.661 147.945 74.272 174.198 Z " fill="rgb(119,104,81)"/><path d=" M 118.455 238.188 C 118.455 242.241 116.337 245.508 112.909 247.635 C 94.72 245.921 77.67 240.275 62.636 231.544 C 66.337 222.823 77.125 216.512 89.86 216.512 C 105.649 216.522 118.455 226.221 118.455 238.188 Z " fill="rgb(119,104,81)"/><path d=" M 61.265 73.096 C 61.265 85.063 42.813 90.155 26.52 79.397 C 19.895 75.022 14.259 76.484 10.296 77.492 C 13.987 68.539 18.705 60.121 24.291 52.368 C 26.943 51.753 29.756 51.42 32.67 51.42 C 48.46 51.42 61.265 61.129 61.265 73.096 Z " fill="rgb(119,104,81)"/><path d=" M 191.01 95.297 C 191.01 113.565 169.897 148.318 145.023 131.894 C 124.908 118.616 110.761 140.545 110.761 122.276 C 110.761 104.007 130.302 89.197 154.41 89.197 C 178.508 89.197 191.01 77.028 191.01 95.297 Z " fill="rgb(119,104,81)"/><path d=" M 247.202 108.806 C 232.935 122.336 230.061 135.03 219.898 122.115 C 208.665 107.839 203.765 67.854 232.884 64.96 C 240.235 78.268 245.195 93.079 247.202 108.806 Z " fill="rgb(119,104,81)"/><path d=" M 247.575 137.086 C 245.306 159.72 236.927 180.55 224.112 197.911 L 224.112 197.911 C 218.99 197.941 213.586 196.378 208.03 192.699 C 183.6 176.567 166.418 203.204 166.418 181.014 C 166.418 158.823 190.153 140.827 219.424 140.827 C 231.049 140.847 240.466 138.508 247.575 137.086 Z " fill="rgb(119,104,81)"/></g></g></g></g></g></g></svg>