<?xml version="1.0" encoding="UTF-8" standalone="no"?><!-- Generator: Gravit.io --><svg xmlns="http://www.w3.org/2000/svg" xmlns:xlink="http://www.w3.org/1999/xlink" style="isolation:isolate" viewBox="0 0 483 481" width="483pt" height="481pt"><defs><clipPath id="_clipPath_NK3hspY0MM9CtGrndQEKt4SS30XtW6Jj"><rect width="483" height="481"/></clipPath></defs><g clip-path="url(#_clipPath_NK3hspY0MM9CtGrndQEKt4SS30XtW6Jj)"><clipPath id="_clipPath_boEszgWZbclhygXCSNT1oOIW0Jr0m5Sx"><rect x="1" y="1.25" width="481" height="478.5" transform="matrix(1,0,0,1,0,0)" fill="rgb(255,255,255)"/></clipPath><g clip-path="url(#_clipPath_boEszgWZbclhygXCSNT1oOIW0Jr0m5Sx)"><g><g><g><path d=" M 480.305 240.06 C 480.305 274.1 473.185 306.46 460.355 335.77 C 450.695 357.81 437.815 378.12 422.295 396.08 C 406.275 414.63 387.455 430.68 366.475 443.58 C 366.475 443.58 366.475 443.59 366.465 443.59 C 330.115 465.96 287.315 478.86 241.495 478.86 C 202.945 478.86 166.535 469.73 134.305 453.5 C 134.305 453.5 134.305 453.5 134.295 453.5 C 119.285 445.95 105.185 436.86 92.185 426.44 C 82.505 418.67 73.445 410.17 65.085 401.01 C 39.915 373.45 21.125 339.96 11.045 302.89 C 5.595 282.87 2.695 261.8 2.695 240.05 C 2.695 108.16 109.605 1.25 241.495 1.25 C 285.145 1.25 326.055 12.96 361.255 33.41 C 396.955 54.15 426.795 83.87 447.665 119.48 C 451.455 125.94 454.945 132.59 458.125 139.43 C 463.425 150.82 467.855 162.7 471.315 174.98 C 476.745 194.2 479.835 214.4 480.235 235.27 C 480.285 236.87 480.305 238.47 480.305 240.06 Z " fill="rgb(96,115,198)"/><path d=" M 447.675 119.5 C 426.535 121.39 403.585 122.43 379.595 122.43 C 274.335 122.43 189.005 102.46 189.005 77.82 C 189.005 54.64 264.605 35.59 361.265 33.42 C 396.965 54.16 426.805 83.88 447.675 119.5 Z " fill="rgb(147,162,216)"/><path d=" M 422.305 396.08 C 406.285 414.63 387.465 430.68 366.485 443.58 C 366.485 443.58 366.485 443.59 366.475 443.59 C 358.555 444.61 350.145 445.16 341.435 445.16 C 293.945 445.16 255.445 428.77 255.445 408.56 C 255.445 388.35 293.945 371.96 341.435 371.96 C 378.635 371.96 410.315 382.01 422.305 396.08 Z " fill="rgb(147,162,216)"/><path d=" M 256.035 348.13 C 256.035 377.97 185.155 402.17 97.705 402.17 C 86.535 402.17 75.625 401.77 65.105 401.02 C 39.935 373.46 21.145 339.97 11.065 302.9 C 35.955 297.33 65.725 294.1 97.705 294.1 C 185.145 294.1 256.035 318.29 256.035 348.13 Z " fill="rgb(181,192,226)"/><path d=" M 480.305 240.06 C 480.305 274.1 473.185 306.46 460.355 335.77 C 456.565 335.86 452.735 335.91 448.875 335.91 C 363.815 335.91 294.855 313.15 294.855 285.06 C 294.855 256.98 363.815 234.21 448.875 234.21 C 459.625 234.21 470.125 234.58 480.255 235.27 C 480.285 236.87 480.305 238.47 480.305 240.06 Z " fill="rgb(77,98,150)"/><ellipse vector-effect="non-scaling-stroke" cx="294.855" cy="184.57000000000008" rx="59.47000000000003" ry="27.650000000000006" fill="rgb(181,192,226)"/><ellipse vector-effect="non-scaling-stroke" cx="114.94499999999992" cy="156.91000000000003" rx="80.27999999999997" ry="35.68000000000001" fill="rgb(77,98,150)"/><ellipse vector-effect="non-scaling-stroke" cx="189.115" cy="212.45000000000007" rx="39.379999999999995" ry="18.310000000000002" fill="rgb(181,192,226)"/><path d=" M 471.325 174.99 C 449.645 174.95 432.105 166.77 432.105 156.68 C 432.105 148.74 442.955 141.99 458.135 139.45 C 463.435 150.83 467.855 162.71 471.325 174.99 Z " fill="rgb(181,192,226)"/><path d=" M 165.745 435.57 C 165.745 444.42 152.255 451.8 134.315 453.51 C 134.315 453.51 134.315 453.51 134.305 453.51 C 119.295 445.96 105.195 436.87 92.195 426.45 C 98.995 420.96 111.745 417.26 126.355 417.26 C 148.115 417.25 165.745 425.45 165.745 435.57 Z " fill="rgb(181,192,226)"/></g></g></g></g></g></svg>