<?xml version="1.0" encoding="UTF-8" standalone="no"?><!-- Generator: Gravit.io --><svg xmlns="http://www.w3.org/2000/svg" xmlns:xlink="http://www.w3.org/1999/xlink" style="isolation:isolate" viewBox="0 0 964 555" width="964pt" height="555pt"><defs><clipPath id="_clipPath_wSfoXH3AKJCYohXgODqu23i5qrmAQDTq"><rect width="964" height="555"/></clipPath></defs><g clip-path="url(#_clipPath_wSfoXH3AKJCYohXgODqu23i5qrmAQDTq)"><clipPath id="_clipPath_d1tV0bvkzJ9qr1TJITVrGf9dqRmZquVZ"><rect x="0" y="0" width="964" height="555" transform="matrix(1,0,0,1,0,0)" fill="rgb(255,255,255)"/></clipPath><g clip-path="url(#_clipPath_d1tV0bvkzJ9qr1TJITVrGf9dqRmZquVZ)"><g><g><g><path d=" M 770.305 253.24 C 771.905 265.68 772.755 278.25 772.795 290.87 C 824.635 343.93 887.955 410.13 871.285 444.04 C 857.035 473.05 778.245 465.25 723.055 458.23 C 711.675 456.79 699.635 454.69 686.985 451.95 L 686.975 451.95 C 685.065 451.54 683.145 451.12 681.215 450.68 L 681.205 450.68 C 642.135 441.81 597.605 427.22 549.835 408.13 C 549.825 408.13 549.825 408.13 549.825 408.12 L 549.815 408.12 C 513.795 393.71 475.925 376.74 437.165 357.7 C 398.325 338.62 361.575 318.93 327.945 299.1 L 327.935 299.1 C 288.065 275.6 252.575 251.89 223.175 228.76 L 223.165 228.76 C 218.415 225.03 213.825 221.31 209.405 217.6 C 199.515 209.33 190.465 201.15 182.315 193.09 C 141.815 153.05 93.325 98.17 107.695 68.92 C 124.585 34.54 210.215 41.06 285.425 50.34 C 295.355 42.78 305.715 35.87 316.455 29.63 C 174.305 -6.38 33.095 -16.87 5.095 40.12 C -21.785 94.86 61.485 207.73 165.925 300.32 C 192.985 324.32 223.535 348.17 257.075 371.12 C 257.085 371.12 257.085 371.12 257.085 371.13 C 297.725 398.96 342.755 425.48 391.295 449.37 L 391.985 449.71 C 425.565 466.21 459.065 480.58 491.985 492.88 L 492.005 492.89 C 506.835 498.44 521.545 503.55 536.095 508.25 C 536.105 508.25 536.105 508.25 536.105 508.26 C 574.895 520.81 612.515 530.38 648.085 537.06 C 784.225 562.65 929.925 562.35 956.795 507.67 C 984.615 451.03 884.265 343.2 770.305 253.24 Z " fill="rgb(165,121,63)"/></g></g></g></g></g></svg>