<?xml version="1.0" encoding="UTF-8" standalone="no"?><!-- Generator: Gravit.io --><svg xmlns="http://www.w3.org/2000/svg" xmlns:xlink="http://www.w3.org/1999/xlink" style="isolation:isolate" viewBox="0 0 968 561" width="968pt" height="561pt"><defs><clipPath id="_clipPath_CvtYmV7dE2815lrg7pz0Gr3uw247Dn0C"><rect width="968" height="561"/></clipPath></defs><g clip-path="url(#_clipPath_CvtYmV7dE2815lrg7pz0Gr3uw247Dn0C)"><g><g><path d=" M 784.665 269 C 785.29 281.75 783.96 291.38 784 304 C 835.84 357.06 889.955 413.079 873.285 446.989 C 859.035 475.999 780.245 468.199 725.055 461.179 C 713.675 459.739 701.635 457.639 688.985 454.899 L 688.975 454.899 C 687.065 454.489 685.145 454.069 683.215 453.629 L 683.205 453.629 C 644.135 444.759 599.605 430.169 551.835 411.079 C 551.825 411.079 551.825 411.079 551.825 411.069 L 551.815 411.069 C 515.795 396.659 477.925 379.689 439.165 360.649 C 400.325 341.569 363.575 321.879 329.945 302.049 L 329.935 302.049 C 290.065 278.549 254.575 254.839 225.175 231.709 L 225.165 231.709 C 220.415 227.979 215.825 224.259 211.405 220.549 C 201.515 212.279 192.465 204.099 184.315 196.039 C 143.815 155.999 95.325 101.119 109.695 71.869 C 126.585 37.489 209.79 45.72 285 55 C 294.93 47.44 303.26 39.24 314 33 C 171.85 -3.01 35.095 -13.921 7.095 43.069 C -19.785 97.809 63.485 210.679 167.925 303.269 C 194.985 327.269 225.535 351.119 259.075 374.069 C 259.085 374.069 259.085 374.069 259.085 374.079 C 299.725 401.909 344.755 428.429 393.295 452.319 L 393.985 452.659 C 427.565 469.159 461.065 483.529 493.985 495.829 L 494.005 495.839 C 508.835 501.389 523.545 506.499 538.095 511.199 C 538.105 511.199 538.105 511.199 538.105 511.209 C 576.895 523.759 614.515 533.329 650.085 540.009 C 786.225 565.599 931.925 565.299 958.795 510.619 C 986.615 453.979 898.625 358.96 784.665 269 Z " fill="rgb(165,121,63)"/></g></g></g></svg>