<?xml version="1.0" encoding="UTF-8" standalone="no"?><!-- Generator: Gravit.io --><svg xmlns="http://www.w3.org/2000/svg" xmlns:xlink="http://www.w3.org/1999/xlink" style="isolation:isolate" viewBox="0 0 611 609" width="611pt" height="609pt"><defs><clipPath id="_clipPath_Ug94FOCRj0Qq59CN4F2LtArq9dfc70Hj"><rect width="611" height="609"/></clipPath></defs><g clip-path="url(#_clipPath_Ug94FOCRj0Qq59CN4F2LtArq9dfc70Hj)"><clipPath id="_clipPath_f4l4ZrgwIMa2QJKFJuMleSeruYqG23Ja"><rect x="0" y="0" width="611" height="609" transform="matrix(1,0,0,1,0,0)" fill="rgb(255,255,255)"/></clipPath><g clip-path="url(#_clipPath_f4l4ZrgwIMa2QJKFJuMleSeruYqG23Ja)"><g><clipPath id="_clipPath_TlV9yeHlGGb28Z5CQVqSHvC3aaO6wKE7"><rect x="2" y="1" width="609" height="611" transform="matrix(1,0,0,1,0,0)" fill="rgb(255,255,255)"/></clipPath><g clip-path="url(#_clipPath_TlV9yeHlGGb28Z5CQVqSHvC3aaO6wKE7)"><g><g><g><g><path d=" M 751.791 325.208 C 751.291 323.788 750.771 322.368 750.251 320.948 C 750.831 320.768 751.411 320.588 751.991 320.398 C 751.931 321.998 751.871 323.598 751.791 325.208 Z " fill="rgb(225,249,249)"/><clipPath id="_clipPath_flltpv12O8wl7PaVCohvEDoQgdHPQTHt"><path d=" M -1216 -1221 L 1220 -1221 L 1220 1223 L -1216 1223 L -1216 -1221 L -1216 -1221 Z  M 751.791 325.208 C 751.291 323.788 750.771 322.368 750.251 320.948 C 750.831 320.768 751.411 320.588 751.991 320.398 C 751.931 321.998 751.871 323.598 751.791 325.208 Z " fill-rule="evenodd" fill="rgb(255,255,255)"/></clipPath><g clip-path="url(#_clipPath_flltpv12O8wl7PaVCohvEDoQgdHPQTHt)"><g><path d=" M 751.791 325.208 C 751.291 323.788 750.771 322.368 750.251 320.948 C 750.831 320.768 751.411 320.588 751.991 320.398 C 751.931 321.998 751.871 323.598 751.791 325.208 Z " fill="rgb(225,249,249)"/><clipPath id="_clipPath_cNSZZV5g8lyO9ClRvXh9aOLo72htj3IJ"><path d=" M -1222 -1218 L 1222 -1218 L 1222 1218 L -1222 1218 L -1222 -1218 Z  M 751.791 325.208 C 751.291 323.788 750.771 322.368 750.251 320.948 C 750.831 320.768 751.411 320.588 751.991 320.398 C 751.931 321.998 751.871 323.598 751.791 325.208 Z " fill-rule="evenodd" fill="rgb(255,255,255)"/></clipPath><g clip-path="url(#_clipPath_cNSZZV5g8lyO9ClRvXh9aOLo72htj3IJ)"><mask id="_mask_bzWSdGS7vGhYz6wF21TNso6uQqhkBf0C" x="-200%" y="-200%" width="400%" height="400%"><rect x="-200%" y="-200%" width="400%" height="400%" style="fill:white;"/><path d=" M 751.791 325.208 C 751.291 323.788 750.771 322.368 750.251 320.948 C 750.831 320.768 751.411 320.588 751.991 320.398 C 751.931 321.998 751.871 323.598 751.791 325.208 Z " fill="black" stroke="none"/></mask><path d=" M 751.791 325.208 C 751.291 323.788 750.771 322.368 750.251 320.948 C 750.831 320.768 751.411 320.588 751.991 320.398 C 751.931 321.998 751.871 323.598 751.791 325.208 Z " fill="rgb(225,249,249)"/><path d=" M 751.791 325.208 C 751.291 323.788 750.771 322.368 750.251 320.948 C 750.831 320.768 751.411 320.588 751.991 320.398 C 751.931 321.998 751.871 323.598 751.791 325.208 Z " fill="rgb(225,249,249)" mask="url(#_mask_bzWSdGS7vGhYz6wF21TNso6uQqhkBf0C)" vector-effect="non-scaling-stroke" stroke-width="1.358" stroke="rgb(3,5,5)" stroke-opacity="10000" stroke-linejoin="miter" stroke-linecap="butt" stroke-miterlimit="10"/></g></g></g><path d=" M 605.661 259.908 C 598.031 261.368 590.261 262.548 582.361 263.468 C 589.951 261.078 598.031 261.368 605.661 259.908 C 601.571 232.538 593.761 205.848 582.501 180.638 C 554.601 118.148 505.511 64.688 439.291 32.158 C 371.971 -0.912 298.341 -6.762 230.921 10.368 C 205.271 16.878 180.511 26.728 157.341 39.658 C 141.241 48.648 125.911 59.128 111.581 71.018 C 111.741 71.468 111.411 70.568 111.581 71.018 C 110.406 71.594 110.063 72.063 108.651 73.478 C 107.401 74.538 106.161 75.618 104.931 76.698 C 103.701 77.778 102.471 78.878 101.251 79.988 C 93.951 86.628 86.941 93.658 80.261 101.058 C 70.661 111.698 61.741 123.118 53.591 135.278 L 53.591 135.278 C 46.101 146.468 39.261 158.288 33.161 170.698 C 32.131 172.798 31.131 174.898 30.151 177.008 C 20.671 197.478 13.661 218.478 9.001 239.668 C -5.739 306.838 3.201 375.968 32.061 436.068 C 60.481 495.228 108.221 545.648 171.701 576.838 C 235.001 607.938 303.861 614.958 367.901 601.448 C 433.331 587.658 493.731 552.428 538.011 499.558 C 538.011 499.558 538.011 499.558 538.011 499.558 C 551.951 482.928 564.281 464.538 574.681 444.528 C 575.751 442.468 576.801 440.388 577.831 438.288 C 583.931 425.868 589.101 413.238 593.381 400.468 L 593.381 400.468 C 598.031 386.588 601.611 372.548 604.161 358.448 C 604.761 355.128 605.311 351.808 605.791 348.488 C 607.251 338.518 608.211 328.528 608.661 318.558 C 608.411 317.848 609.071 315.988 608.811 315.288 C 608.721 315.028 608.911 315.548 608.811 315.288 C 609.201 315.168 608.401 315.428 608.791 315.288 C 609.461 296.688 608.381 278.148 605.661 259.908 Z " fill="rgb(247,209,116)"/><path d=" M 605.661 259.908 C 598.031 261.368 590.261 262.548 582.361 263.468 C 510.011 271.908 433.201 242.398 353.801 203.388 C 274.461 164.408 206.411 122.798 168.861 60.438 C 164.721 53.578 160.881 46.648 157.341 39.658 C 141.241 48.648 125.911 59.128 111.581 71.018 C 111.741 71.468 111.911 71.928 112.081 72.378 C 142.301 154.298 204.521 251.808 305.611 301.468 C 406.781 351.168 524.281 341.878 607.631 315.658 C 608.021 315.538 608.421 315.418 608.811 315.278 C 609.461 296.688 608.381 278.148 605.661 259.908 Z " fill="rgb(229,166,66)"/><path d=" M 582.501 180.638 C 558.051 180.868 532.741 178.698 507.051 174.058 C 466.841 166.788 435.291 139.128 395.081 119.368 C 356.121 100.228 311.791 91.028 282.081 64.688 C 262.851 47.638 245.731 29.398 230.931 10.378 C 205.281 16.888 180.521 26.738 157.351 39.668 C 160.891 46.648 164.731 53.578 168.871 60.448 C 206.421 122.808 260.351 172.188 327.591 229.568 C 398.551 290.118 492.811 291.728 582.371 263.478 C 589.961 261.088 598.041 261.378 605.671 259.918 C 601.571 232.538 593.761 205.848 582.501 180.638 Z " fill="rgb(186,137,66)"/><path d=" M 593.391 400.488 C 506.581 441.798 383.401 437.838 267.881 381.088 C 152.361 324.338 73.941 229.248 53.581 135.298 C 61.731 123.138 70.651 111.718 80.251 101.078 C 88.661 131.668 107.591 155.608 127.831 183.318 C 166.801 236.698 211.971 300.698 294.221 324.658 C 368.951 346.428 422.291 382.948 501.561 363.838 C 537.821 355.098 572.821 371.328 604.181 358.458 C 601.621 372.558 598.031 386.598 593.391 400.488 Z " fill="rgb(186,137,66)"/><path d=" M 574.691 444.548 C 564.291 464.558 551.951 482.948 538.021 499.578 C 538.021 499.578 538.021 499.578 538.021 499.578 C 451.801 536.668 332.871 531.178 221.121 476.278 C 109.371 421.378 32.341 330.608 9.001 239.688 C 13.651 218.498 20.661 197.488 30.151 177.028 C 38.341 218.358 67.211 252.978 96.221 291.608 C 134.121 342.068 153.271 398.248 245.321 427.028 C 369.981 466.008 487.701 487.838 574.691 444.548 Z " fill="rgb(229,166,66)"/><path d=" M 538.011 499.578 C 493.721 552.458 433.331 587.678 367.901 601.468 C 308.501 600.158 244.561 584.908 182.821 554.568 C 120.781 524.088 69.451 482.558 32.061 436.078 C 3.191 375.978 -5.739 306.848 9.001 239.678 C 32.341 330.598 126.021 388.718 226.931 461.658 C 302.371 516.198 451.791 536.678 538.011 499.578 Z " fill="rgb(186,137,66)"/></g></g></g></g></g></g></g></g></svg>