<?xml version="1.0" encoding="UTF-8" standalone="no"?><!-- Generator: Gravit.io --><svg xmlns="http://www.w3.org/2000/svg" xmlns:xlink="http://www.w3.org/1999/xlink" style="isolation:isolate" viewBox="0 0 1478.5 1487" width="1478.5pt" height="1487pt"><defs><clipPath id="_clipPath_eODA5X4rSMUHYpbySC7gGngbfE0tsZAg"><rect width="1478.5" height="1487"/></clipPath></defs><g clip-path="url(#_clipPath_eODA5X4rSMUHYpbySC7gGngbfE0tsZAg)"><clipPath id="_clipPath_60unFGcCMSVkMEV705btxGQNKKj7louV"><rect x="4.044" y="3" width="1470.071" height="1482" transform="matrix(1,0,0,1,0,0)" fill="rgb(255,255,255)"/></clipPath><g clip-path="url(#_clipPath_60unFGcCMSVkMEV705btxGQNKKj7louV)"><g><clipPath id="_clipPath_55ME0wxqH3ROXLt9WagrIOqc0PxYYDSU"><rect x="4.044" y="3" width="1483.231" height="1482" transform="matrix(1,0,0,1,0,0)" fill="rgb(255,255,255)"/></clipPath><g clip-path="url(#_clipPath_55ME0wxqH3ROXLt9WagrIOqc0PxYYDSU)"><g><g><g><g><g><path d=" M 1434.393 734.69 C 1434.393 787.48 1488.825 787.17 1469.9 843.26 C 1459.251 874.82 1419.43 877.08 1415.8 918.28 C 1412.481 955.94 1457.26 977.43 1434.534 1017.4 C 1411.224 1058.39 1362.122 1039.21 1342.262 1090.79 C 1329.803 1123.14 1363.168 1167.69 1337.898 1199.33 C 1312.899 1230.64 1265.043 1215.81 1234.112 1233 C 1181.59 1262.18 1219.269 1282.81 1189.766 1317.08 C 1155.304 1357.1 1120.612 1310.21 1080.69 1334.03 C 1047.405 1353.88 1054.143 1426.52 1016.041 1438.61 C 984.356 1448.66 965.491 1402.47 938.089 1400.9 C 890.555 1398.18 886.12 1450.99 844.64 1459.69 C 797.68 1469.55 774.843 1417.49 725.831 1427.43 C 697.745 1433.13 679.856 1485.53 646.571 1480.28 C 611.446 1474.74 610.943 1417.79 581.54 1405.19 C 536.5 1385.89 505.317 1437.38 463.596 1430.38 C 408.942 1421.2 419.3 1384.81 390.319 1345.27 C 335.776 1270.85 238.718 1329.49 191.848 1258.55 C 168.971 1223.93 195.076 1166.64 176.09 1129.07 C 150.85 1079.1 75.15 1075.46 54.284 1023.85 C 38.597 985.04 69.971 945.38 70.082 907.23 C 70.253 851.58 27.586 828.78 11.758 779.23 C -11.179 707.4 21.764 720.85 48.814 665.53 C 73.964 614.11 39.07 576.96 33.921 524.71 C 23.463 418.49 130.256 431.91 167.533 350.22 C 214.604 247.04 144.073 196.36 285.306 182.18 C 388.539 171.82 388.569 65.32 477.905 44.66 C 520.592 34.79 561.921 68.57 605.795 62.29 C 656.195 55.08 691.269 3.06 744.334 3 C 797.368 2.94 833.046 55.01 883.405 62.4 C 935.494 70.04 989.253 29.07 1037.812 57.06 C 1078.498 80.51 1082.359 134.98 1125.992 158.74 C 1192.119 194.76 1217.318 158.18 1255.933 230.79 C 1282.158 280.1 1280.801 298.56 1324.986 334.62 C 1374.843 375.3 1375.406 365.67 1387.704 427.36 C 1390.751 442.64 1378.483 459.24 1383.742 476.17 C 1393.898 508.84 1434.162 520.62 1449.577 548.69 C 1485.818 614.64 1434.393 666.33 1434.393 734.69 Z " fill="rgb(255,232,136)"/></g><g><g><ellipse vector-effect="non-scaling-stroke" cx="744.3334896932058" cy="734.690051812059" rx="621.4989233200959" ry="618.05" fill="rgb(244,202,83)"/></g></g><g><path d=" M 1309.681 735.32 C 1309.681 764.43 1270.685 779.24 1262.308 803.29 C 1248.361 843.35 1269.88 855.41 1270.131 895.27 C 1270.634 975.35 1197.72 962.46 1171.585 1031.42 C 1160.503 1060.65 1176.472 1096.61 1153.424 1123.38 C 1127.047 1154.02 1082.289 1144.09 1047.918 1153.69 C 973.133 1174.57 963.681 1240.92 901.134 1270.94 C 837.873 1301.3 785.11 1240.37 719.777 1242.35 C 640.497 1244.75 587.604 1300.2 519.516 1235.4 C 465.315 1183.82 463.777 1156.08 386.991 1133.39 C 293.542 1105.78 341.83 1085.3 309.259 1013.17 C 282.983 954.99 218.787 976.13 220.386 905.19 C 220.979 879.1 250.252 856.83 247.044 829.42 C 242.911 794.08 217.138 796.49 201.562 769.81 C 158.332 695.77 227.596 709.21 246.551 644.03 C 266.713 574.72 184.235 552.4 256.818 499.32 C 281.103 481.56 312.99 491.74 324.997 459.53 C 333.142 437.69 308.405 415.01 313.623 394.52 C 329.843 330.8 394.713 365.78 437.35 323.19 C 490.284 270.31 454.897 231.25 548.085 232.8 C 576.201 233.27 606.237 244.39 634.313 238.72 C 673.863 230.73 693.522 199.07 729.471 185.03 C 809.998 153.58 850.935 219.41 922.573 241.42 C 1017.057 270.46 1055.118 253.68 1107.941 343.07 C 1144.012 404.11 1223.302 418.81 1243.413 484.78 C 1256.556 527.9 1242.156 571.05 1260.749 615.53 C 1278.025 656.85 1309.681 687.34 1309.681 735.32 Z " fill="rgb(237,204,122)"/></g><g><path d=" M 1189.082 733.81 C 1189.082 762.49 1148.326 776.2 1143.569 803.61 C 1138.28 834.07 1173.425 861.9 1159.638 892.39 C 1147.179 919.95 1111.441 914.92 1095.734 937.07 C 1077.583 962.67 1090.525 995.03 1075.944 1018.77 C 1043.263 1071.99 959.377 1070.91 908.213 1111.3 C 886.824 1128.18 879.645 1157.19 848.653 1163.85 C 815.951 1170.88 795.93 1141.64 767.382 1137.11 C 678.398 1122.98 623.614 1185.12 555.365 1109.53 C 524.403 1075.23 519.184 1066.13 477.402 1048.82 C 442.328 1034.29 426.279 1047.83 405.946 1010.32 C 394.703 989.57 410.24 957.92 396.654 936.14 C 373.164 898.48 339.849 923.09 330.024 872.51 C 325.6 849.73 360.182 825.26 353.887 798.71 C 347.562 772.02 307.399 768.45 303.507 742.79 C 297.735 704.69 336.49 704.3 345.712 673.73 C 358.653 630.83 332.8 636.43 334.63 595.75 C 337.315 536.12 359.91 577.44 383.541 540.74 C 395.065 538.27 404.93 532.64 413.116 523.86 C 417.078 510.01 415.901 496.49 409.586 483.29 C 420.939 454.38 400.003 457.16 426.339 434.21 C 448.834 414.61 483.295 426.85 509.229 400.61 C 525.188 384.46 516.258 356.11 539.819 340.97 C 564.606 325.04 604.478 344.62 631.045 342.74 C 696.056 338.15 729.853 284.27 797.287 297.17 C 832.724 303.95 865.406 339.62 903.658 349.33 C 934.992 357.28 972.399 350.11 999.751 371.7 C 1023.201 390.21 1019.611 420.19 1036.555 440.42 C 1061.946 470.73 1109.922 481.64 1130.195 513.74 C 1147.612 541.32 1132.136 585.39 1140.271 615.47 C 1151.704 657.73 1189.082 687.39 1189.082 733.81 Z " fill="rgb(255,232,136)"/></g></g></g></g></g></g></g></g></g></svg>