<?xml version="1.0" encoding="UTF-8" standalone="no"?><!-- Generator: Gravit.io --><svg xmlns="http://www.w3.org/2000/svg" xmlns:xlink="http://www.w3.org/1999/xlink" style="isolation:isolate" viewBox="0 0 508 509" width="508pt" height="509pt"><defs><clipPath id="_clipPath_IfF6CsPkOQCpQM8BBfnhhkpHpqbDv9V7"><rect width="508" height="509"/></clipPath></defs><g clip-path="url(#_clipPath_IfF6CsPkOQCpQM8BBfnhhkpHpqbDv9V7)"><clipPath id="_clipPath_G8Z4PA8rqtbBMVh9OI4LCA9Q69Ugoi4I"><rect x="0" y="0" width="508" height="509" transform="matrix(0,-1,1,0,-0.5,508.5)" fill="rgb(255,255,255)"/></clipPath><g clip-path="url(#_clipPath_G8Z4PA8rqtbBMVh9OI4LCA9Q69Ugoi4I)"><g><clipPath id="_clipPath_6vVPiGiiCpdqSkRhR7QUHRLFudO36pmd"><rect x="2" y="0" width="506" height="507" transform="matrix(0,-1,1,0,1.5,508.5)" fill="rgb(255,255,255)"/></clipPath><g clip-path="url(#_clipPath_6vVPiGiiCpdqSkRhR7QUHRLFudO36pmd)"><g><g><g><g><g><path d=" M 207.91 6 C 232.39 1.46 256.71 0.62 280.27 3.1 C 285.45 3.64 290.59 4.34 295.68 5.2 L 298.75 5.74 C 305.78 7.01 312.74 8.58 319.59 10.44 C 333.58 14.22 347.15 19.19 360.18 25.25 C 366.93 28.4 373.54 31.83 379.97 35.56 C 391.25 42.06 402.01 49.44 412.15 57.61 C 421.9 65.45 431.07 74.02 439.58 83.25 C 470.7 117.01 492.99 159.67 501.97 208.15 C 508.34 242.5 507.42 276.52 500.31 308.6 C 500.31 308.61 500.31 308.61 500.31 308.61 C 496.19 327.22 489.98 345.19 481.9 362.2 C 471.43 384.24 457.83 404.67 441.54 422.81 C 437.27 427.57 432.82 432.17 428.18 436.6 C 418.92 445.47 408.95 453.65 398.36 461.06 C 392.31 465.29 386.05 469.27 379.6 472.97 C 372.87 476.83 365.94 480.4 358.81 483.66 C 353.54 486.07 348.16 488.3 342.68 490.35 C 329.01 495.47 314.7 499.48 299.85 502.23 C 298.18 502.54 296.51 502.83 294.84 503.1 C 284.41 504.83 274.02 505.88 263.71 506.29 C 257.94 506.53 252.2 506.56 246.49 506.4 C 238.72 506.18 231.02 505.6 223.4 504.68 C 207.53 502.75 192.01 499.33 177.03 494.52 C 162.57 489.89 148.61 483.97 135.31 476.88 L 135.3 476.88 C 131.34 474.77 127.44 472.55 123.6 470.24 C 113.51 464.16 103.87 457.38 94.73 449.95 C 93.53 448.98 92.34 448 91.16 447 C 83.73 440.74 76.64 434.04 69.97 426.94 C 37.9 392.88 14.92 349.52 5.77 300.11 C -4.16 246.54 3.63 193.78 24.99 147.88 C 27.86 141.72 30.97 135.68 34.32 129.78 C 36.33 126.23 38.42 122.74 40.6 119.29 C 45.69 111.25 51.22 103.51 57.17 96.09 C 60.21 92.3 63.36 88.59 66.62 84.98 C 74.78 75.93 83.61 67.46 93.04 59.65 C 98.48 55.14 104.12 50.86 109.95 46.8 C 118.78 40.66 128.04 35.07 137.71 30.07 C 150.34 23.52 163.65 17.99 177.56 13.6 C 187.17 10.56 197.07 8.07 207.22 6.16 C 207.45 6.08 207.68 6.04 207.91 6 Z " fill="rgb(127,226,239)"/><g><path d=" M 34.32 129.75 C 34.71 131.16 35.11 132.59 35.5 134.08 C 42.28 159.59 50.66 202.12 52.1 259.92 C 53.95 334.57 76.05 404.9 91.18 446.96 C 83.75 440.7 76.66 434 69.99 426.9 C 55.89 383.8 40.17 323.7 38.59 260.26 C 37.4 212.11 31.35 174.64 25 147.85 C 27.86 141.69 30.97 135.66 34.32 129.75 Z " fill="rgb(187,245,249)"/></g><g><path d=" M 57.18 96.06 C 61.83 113.3 69.76 143.59 77.24 176.47 C 81.57 195.49 85.19 212.84 88.09 228.5 C 95.66 269.37 98.36 298.68 96.12 315.98 C 90.71 357.71 114.31 439.99 123.62 470.2 C 113.53 464.12 103.89 457.34 94.75 449.91 C 83.74 410.3 69.61 349.64 74.33 313.15 C 76.23 298.48 74.56 263.69 55.82 181.34 C 50.51 158.05 45 136.09 40.6 119.25 C 45.69 111.22 51.22 103.48 57.18 96.06 Z " fill="rgb(107,192,198)"/></g><g><path d=" M 93.05 59.62 C 95.63 80.35 100.35 105.05 106.96 131.46 C 120.19 184.3 138.11 233.08 150.53 250.07 C 157.52 259.64 162.1 270.35 164.35 282.53 C 165.3 287.67 165.84 293.07 165.97 298.76 C 166.35 314.83 163.58 331.85 160.66 349.87 C 157.27 370.75 153.76 392.35 154.04 416.69 C 154.42 450.43 166.25 477.11 177.04 494.5 C 162.58 489.87 148.62 483.95 135.32 476.86 L 135.31 476.86 C 129.03 459.92 124.45 439.84 124.19 417.04 C 123.88 390.12 127.77 366.2 131.2 345.09 C 136.67 311.43 140.62 287.11 126.43 267.7 C 108.32 242.92 89.03 182.73 78.01 138.72 C 74.9 126.3 70.28 106.46 66.64 84.97 C 74.79 75.9 83.62 67.43 93.05 59.62 Z " fill="rgb(187,245,249)"/></g><g><path d=" M 137.72 30.04 C 131.09 51.48 126.41 79.04 138.81 99.4 C 156.45 128.36 181.8 179.14 189.86 222.59 C 192.64 237.6 193.36 251.73 190.98 263.79 C 190.36 266.96 190.62 274.26 195.39 291.06 C 199.31 304.84 205.32 321.83 211.69 339.82 C 221.04 366.2 231.23 394.99 238.41 423.11 L 238.41 423.12 C 240.52 431.37 242.37 439.55 243.86 447.6 C 243.99 448.29 244.11 448.97 244.23 449.66 L 244.24 449.69 C 247.85 469.92 249.12 489.24 246.51 506.38 C 238.74 506.16 231.04 505.58 223.42 504.66 C 230.74 462.82 207.67 397.65 189.92 347.54 C 173.93 302.37 165.04 276.01 168.33 259.33 C 174.89 226.05 148.53 159.74 119.09 111.43 C 108.65 94.29 105.58 72.54 109.96 46.78 C 118.79 40.63 128.05 35.04 137.72 30.04 Z " fill="rgb(187,245,249)"/></g><g><path d=" M 207.23 6.13 C 207.27 9.78 207.41 13.72 207.69 17.95 C 209.15 40.6 214.86 76.87 233.74 121.04 C 245.28 148.06 253.11 176.57 258.33 204.73 C 272.01 278.53 267.76 349.95 265.61 386.17 C 263.26 425.76 284.62 479.71 294.87 503.07 C 284.44 504.8 274.05 505.85 263.74 506.26 C 257.72 491.82 250.06 471.55 244.25 449.68 L 244.24 449.65 C 241.93 440.96 239.92 432.03 238.42 423.11 L 238.42 423.1 C 236.19 409.88 235.08 396.69 235.82 384.41 C 238.66 336.45 245.33 224.16 206.29 132.78 C 184.55 81.88 178.64 40.07 177.58 13.57 C 187.17 10.53 197.07 8.03 207.23 6.13 Z " fill="rgb(107,192,198)"/></g><g><path d=" M 280.27 3.09 C 285.45 3.63 290.59 4.33 295.68 5.19 L 298.75 5.73 C 300.99 16 303.45 27.98 305.88 41.09 C 307.93 52.15 309.95 63.99 311.79 76.28 C 316.48 107.69 319.13 135.81 319.73 160.54 C 320.63 197.7 316.9 227.19 308.54 248.66 C 296.14 280.49 302.99 335.65 328.34 408.18 C 338.69 437.78 350.23 464.77 358.82 483.65 C 353.55 486.06 348.17 488.29 342.69 490.34 C 333.96 471.13 322.35 443.94 311.93 414.13 C 284.75 336.43 278.14 278.63 292.27 242.33 C 315.71 182.11 292.79 59.25 280.27 3.09 Z " fill="rgb(187,245,249)"/></g><g><path d=" M 295.69 5.19 L 298.76 5.73 C 305.79 7 312.75 8.57 319.6 10.43 C 325.5 35.96 332.76 78.15 340.42 147.82 C 349.63 231.57 357.35 273.38 362.99 303.9 C 367.49 328.25 370.74 345.85 372 371.18 C 373.47 400.58 386.93 435.88 398.37 461.04 C 392.32 465.27 386.06 469.25 379.61 472.95 C 367.15 445.98 351.76 406.38 350.05 372.27 C 348.86 348.4 345.88 332.28 341.38 307.88 C 335.92 278.3 328.52 238.26 319.72 160.53 C 319.34 157.16 318.96 153.72 318.57 150.21 C 309.54 68.02 301.18 26.05 295.69 5.19 Z " fill="rgb(187,245,249)"/></g><g><path d=" M 360.19 25.24 C 366.94 28.39 373.55 31.82 379.98 35.55 C 391.73 98.16 408.58 200.62 406.41 263.84 C 404.61 316.43 424.45 379.14 441.55 422.79 C 437.28 427.55 432.83 432.15 428.19 436.58 C 424.93 428.51 421.51 419.66 418.11 410.21 C 397.4 352.78 387.59 303.33 388.96 263.25 C 391.2 197.7 371.69 85.03 360.19 25.24 Z " fill="rgb(187,245,249)"/></g><g><path d=" M 412.17 57.59 C 421.92 65.43 431.09 74 439.6 83.23 C 438.29 108.48 440.7 142.02 454.98 177.11 C 473.67 223.05 489.72 269.59 500.33 308.58 C 500.33 308.59 500.33 308.59 500.33 308.59 C 496.21 327.2 490 345.17 481.92 362.18 C 480.05 351.05 477.04 336.99 472.31 319.29 C 462.02 280.86 446.05 234.37 427.33 188.37 C 407.67 140.02 407.72 94.44 411.23 64.71 C 411.51 62.27 411.83 59.9 412.17 57.59 Z " fill="rgb(107,192,198)"/></g></g></g></g></g></g></g></g></g></g></svg>