<?xml version="1.0" encoding="UTF-8" standalone="no"?><!-- Generator: Gravit.io --><svg xmlns="http://www.w3.org/2000/svg" xmlns:xlink="http://www.w3.org/1999/xlink" style="isolation:isolate" viewBox="0 0 874 270" width="874pt" height="270pt"><defs><clipPath id="_clipPath_3rqF6RCpV39soPlundeiTX8Ewxsvb7bk"><rect width="874" height="270"/></clipPath></defs><g clip-path="url(#_clipPath_3rqF6RCpV39soPlundeiTX8Ewxsvb7bk)"><g><g><path d=" M 870.2 46.962 C 870.09 46.562 870.01 46.142 869.86 45.752 L 869.43 44.592 L 868.99 43.422 C 868.84 43.042 868.69 42.642 868.5 42.292 C 868.14 41.562 867.77 40.832 867.4 40.102 C 865.82 37.312 863.96 34.742 861.89 32.602 C 857.78 28.212 853.18 24.962 848.53 22.272 C 843.86 19.582 839.09 17.492 834.3 15.682 C 829.51 13.882 824.7 12.352 819.86 11.042 C 815.03 9.752 810.19 8.592 805.35 7.652 C 804.14 7.392 802.93 7.172 801.71 6.952 L 798.08 6.292 C 795.66 5.902 793.24 5.462 790.81 5.132 C 781.11 3.682 771.42 2.642 761.73 1.862 C 742.35 0.322 723 -0.108 703.7 0.022 C 684.4 0.172 665.14 0.912 645.92 2.122 C 641.66 2.382 637.41 2.672 633.16 2.972 C 635.18 6.062 637.14 9.202 639.03 12.392 C 641.48 12.312 643.92 12.242 646.37 12.172 C 665.45 11.662 684.53 11.632 703.57 12.182 C 722.59 12.742 741.58 13.922 760.36 16.062 C 769.75 17.132 779.08 18.472 788.3 20.162 C 797.52 21.832 806.6 23.962 815.38 26.592 C 819.77 27.922 824.05 29.432 828.18 31.132 C 832.3 32.822 836.27 34.742 839.86 36.932 C 843.45 39.112 846.65 41.612 849.02 44.312 C 850.25 45.642 851.14 47.042 851.9 48.422 C 852.06 48.772 852.22 49.122 852.39 49.462 C 852.49 49.622 852.54 49.802 852.6 49.982 L 852.77 50.502 L 852.96 51.022 C 853.03 51.192 853.04 51.372 853.09 51.552 C 853.16 51.902 853.24 52.252 853.33 52.612 C 853.36 52.972 853.39 53.332 853.43 53.692 C 853.45 53.872 853.5 54.042 853.48 54.232 L 853.47 54.782 L 853.47 55.332 C 853.48 55.512 853.49 55.692 853.45 55.882 C 853.4 56.262 853.36 56.642 853.32 57.012 C 853.05 58.542 852.67 60.132 851.94 61.772 C 850.59 65.042 848.43 68.412 845.8 71.612 C 843.17 74.832 840.07 77.902 836.77 80.832 C 833.45 83.762 829.94 86.562 826.27 89.242 C 822.58 91.902 818.81 94.492 814.89 96.932 C 813.93 97.552 812.94 98.162 811.95 98.752 L 808.98 100.552 C 806.97 101.712 804.99 102.902 802.95 104.032 C 794.85 108.592 786.52 112.872 778.05 116.912 C 761.1 124.992 743.61 132.152 725.91 138.802 C 708.75 145.232 691.37 151.162 673.84 156.672 C 673.27 156.852 672.71 157.022 672.14 157.202 C 638.79 167.682 605 176.892 570.99 185.262 L 570.98 185.262 C 568.08 185.982 565.17 186.692 562.26 187.392 C 534.2 194.182 506 200.392 477.68 206.092 L 477.67 206.092 C 468.69 207.902 459.7 209.662 450.69 211.362 C 432 214.902 413.26 218.222 394.47 221.222 C 385.08 222.712 375.68 224.182 366.27 225.562 C 356.86 226.932 347.44 228.262 338.01 229.472 C 300.3 234.402 262.45 238.212 224.56 240.392 C 217.26 240.802 209.97 241.162 202.68 241.442 C 198.62 241.602 194.57 241.732 190.51 241.842 C 182.92 242.052 175.33 242.172 167.75 242.202 C 148.84 242.242 129.95 241.782 111.24 240.262 C 101.89 239.502 92.59 238.502 83.4 237.142 C 81.1 236.822 78.82 236.412 76.53 236.052 L 73.12 235.432 C 71.98 235.232 70.84 235.022 69.72 234.782 C 65.19 233.912 60.75 232.842 56.35 231.702 C 51.96 230.532 47.68 229.182 43.54 227.652 C 39.41 226.112 35.42 224.372 31.81 222.322 C 28.2 220.292 24.97 217.942 22.54 215.392 C 21.27 214.132 20.34 212.792 19.53 211.462 C 19.36 211.132 19.18 210.792 19 210.462 C 18.89 210.302 18.83 210.122 18.77 209.952 L 18.57 209.442 L 18.36 208.942 C 18.28 208.772 18.27 208.592 18.21 208.422 C 18.12 208.072 18.02 207.732 17.91 207.382 C 17.87 207.022 17.81 206.672 17.75 206.312 C 17.73 206.132 17.67 205.962 17.67 205.772 L 17.65 205.222 L 17.62 204.662 C 17.61 204.472 17.59 204.292 17.62 204.102 C 17.65 203.722 17.68 203.332 17.7 202.952 C 17.9 201.402 18.22 199.752 18.89 198.072 C 20.12 194.692 22.19 191.192 24.75 187.852 C 27.31 184.492 30.33 181.282 33.57 178.202 C 36.82 175.132 40.28 172.172 43.89 169.352 C 47.53 166.542 51.24 163.792 55.1 161.202 C 56.05 160.532 57.02 159.892 58 159.252 L 60.92 157.332 C 62.91 156.102 64.86 154.812 66.88 153.612 C 74.88 148.722 83.12 144.132 91.51 139.782 C 108.3 131.082 125.63 123.222 143.22 115.972 C 152.79 112.022 162.44 108.232 172.15 104.582 C 172.77 100.332 173.5 96.102 174.34 91.922 C 162.41 95.952 150.53 100.192 138.74 104.672 C 120.71 111.552 102.82 118.932 85.3 127.342 C 76.54 131.552 67.87 135.992 59.34 140.812 C 57.2 142.002 55.1 143.272 52.98 144.502 L 49.82 146.422 C 48.77 147.062 47.72 147.702 46.68 148.382 C 42.5 150.992 38.4 153.802 34.35 156.722 C 30.31 159.662 26.36 162.812 22.53 166.192 C 18.71 169.592 15 173.242 11.59 177.402 C 8.2 181.562 5.05 186.232 2.78 191.782 C 1.61 194.522 0.79 197.572 0.3 200.752 C 0.21 201.562 0.12 202.372 0.05 203.182 C 0 203.582 0 204.002 0 204.412 L 0 205.652 L 0.01 206.902 C 0.01 207.312 0.08 207.732 0.12 208.152 C 0.21 208.982 0.31 209.822 0.42 210.642 C 0.6 211.452 0.78 212.272 0.98 213.092 C 1.08 213.492 1.16 213.922 1.3 214.302 L 1.71 215.482 L 2.13 216.662 C 2.27 217.052 2.41 217.452 2.6 217.812 C 2.94 218.552 3.3 219.292 3.66 220.032 C 5.19 222.882 7.01 225.512 9.04 227.732 C 13.08 232.252 17.65 235.672 22.29 238.502 C 26.93 241.332 31.69 243.592 36.47 245.572 C 41.26 247.532 46.07 249.222 50.9 250.692 C 55.73 252.132 60.57 253.462 65.42 254.572 C 66.63 254.872 67.84 255.132 69.06 255.402 L 72.7 256.192 C 75.13 256.662 77.56 257.182 79.98 257.602 C 89.7 259.382 99.43 260.762 109.16 261.852 C 128.61 264.022 148.07 265.162 167.49 265.642 C 179.17 265.922 190.84 266.002 202.5 265.872 C 203.46 265.862 204.39 265.852 205.34 265.842 L 205.35 265.842 C 212.13 265.752 218.9 265.592 225.65 265.362 C 235.33 265.052 245 264.642 254.66 264.102 C 263.97 263.592 273.26 262.982 282.55 262.272 L 282.56 262.272 C 282.91 262.252 283.26 262.212 283.61 262.192 C 293.25 261.452 302.88 260.632 312.5 259.712 C 317.31 259.272 322.11 258.762 326.92 258.272 C 331.72 257.742 336.52 257.242 341.32 256.672 C 360.51 254.472 379.67 251.972 398.77 249.122 C 417.87 246.272 436.92 243.102 455.93 239.702 C 471.37 236.892 486.78 233.872 502.15 230.642 L 502.18 230.632 C 524.6 225.912 546.92 220.712 569.13 214.992 C 600 207.042 630.63 198.112 660.92 188.002 C 660.93 188.002 660.93 188.002 660.93 188.002 C 660.94 188.002 660.94 188.002 660.94 188.002 C 664.13 186.942 667.32 185.852 670.5 184.762 C 673.73 183.662 676.96 182.532 680.19 181.402 C 698.46 174.942 716.58 168.032 734.51 160.552 C 752.44 153.062 770.16 144.982 787.53 135.962 C 796.21 131.442 804.8 126.672 813.23 121.532 C 821.66 116.412 829.91 110.832 837.9 104.692 C 841.89 101.602 845.78 98.302 849.55 94.772 C 853.31 91.232 856.94 87.432 860.28 83.142 C 863.6 78.852 866.65 74.042 868.82 68.382 C 869.93 65.592 870.7 62.492 871.11 59.292 C 871.19 58.472 871.25 57.662 871.31 56.842 C 871.36 56.442 871.35 56.022 871.34 55.602 L 871.31 54.352 L 871.27 53.102 C 871.26 52.682 871.18 52.272 871.14 51.852 C 871.03 51.022 870.91 50.192 870.79 49.362 C 870.61 48.592 870.41 47.772 870.2 46.962 Z " fill="rgb(225,249,249)"/></g></g></g></svg>