<?xml version="1.0" encoding="UTF-8" standalone="no"?><!-- Generator: Gravit.io --><svg xmlns="http://www.w3.org/2000/svg" xmlns:xlink="http://www.w3.org/1999/xlink" style="isolation:isolate" viewBox="0 0 508 509" width="508pt" height="509pt"><defs><clipPath id="_clipPath_TjBdv6H77ivMOmOkhTKeaXgiJV8YiTyL"><rect width="508" height="509"/></clipPath></defs><g clip-path="url(#_clipPath_TjBdv6H77ivMOmOkhTKeaXgiJV8YiTyL)"><clipPath id="_clipPath_Hh4oxdbfYETx98ypATKUwLOBXEL13Zjd"><rect x="2" y="2" width="506" height="507" transform="matrix(1,0,0,1,0,0)" fill="rgb(255,255,255)"/></clipPath><g clip-path="url(#_clipPath_Hh4oxdbfYETx98ypATKUwLOBXEL13Zjd)"><g><g><g><g><path d=" M 502.5 208.41 C 507.04 232.89 507.88 257.21 505.4 280.77 C 504.86 285.95 504.16 291.09 503.3 296.18 L 502.76 299.25 C 501.49 306.28 499.92 313.24 498.06 320.09 C 494.28 334.08 489.31 347.65 483.25 360.68 C 480.1 367.43 476.67 374.04 472.94 380.47 C 466.44 391.75 459.06 402.51 450.89 412.65 C 443.05 422.4 434.48 431.57 425.25 440.08 C 391.49 471.2 348.83 493.49 300.35 502.47 C 266 508.84 231.98 507.92 199.9 500.81 C 199.89 500.81 199.89 500.81 199.89 500.81 C 181.28 496.69 163.31 490.48 146.3 482.4 C 124.26 471.93 103.83 458.33 85.69 442.04 C 80.93 437.77 76.33 433.32 71.9 428.68 C 63.03 419.42 54.85 409.45 47.44 398.86 C 43.21 392.81 39.23 386.55 35.53 380.1 C 31.67 373.37 28.1 366.44 24.84 359.31 C 22.43 354.04 20.2 348.66 18.15 343.18 C 13.03 329.51 9.02 315.2 6.27 300.35 C 5.96 298.68 5.67 297.01 5.4 295.34 C 3.67 284.91 2.62 274.52 2.21 264.21 C 1.97 258.44 1.94 252.7 2.1 246.99 C 2.32 239.22 2.9 231.52 3.82 223.9 C 5.75 208.03 9.17 192.51 13.98 177.53 C 18.61 163.07 24.53 149.11 31.62 135.81 L 31.62 135.8 C 33.73 131.84 35.95 127.94 38.26 124.1 C 44.34 114.01 51.12 104.37 58.55 95.23 C 59.52 94.03 60.5 92.84 61.5 91.66 C 67.76 84.23 74.46 77.14 81.56 70.47 C 115.62 38.4 158.98 15.42 208.39 6.27 C 261.96 -3.66 314.72 4.13 360.62 25.49 C 366.78 28.36 372.82 31.47 378.72 34.82 C 382.27 36.83 385.76 38.92 389.21 41.1 C 397.25 46.19 404.99 51.72 412.41 57.67 C 416.2 60.71 419.91 63.86 423.52 67.12 C 432.57 75.28 441.04 84.11 448.85 93.54 C 453.36 98.98 457.64 104.62 461.7 110.45 C 467.84 119.28 473.43 128.54 478.43 138.21 C 484.98 150.84 490.51 164.15 494.9 178.06 C 497.94 187.67 500.43 197.57 502.34 207.72 C 502.42 207.95 502.46 208.18 502.5 208.41 Z " fill="rgb(127,226,239)"/><g><path d=" M 378.75 34.82 C 377.34 35.21 375.91 35.61 374.42 36 C 348.91 42.78 306.38 51.16 248.58 52.6 C 173.93 54.45 103.6 76.55 61.54 91.68 C 67.8 84.25 74.5 77.16 81.6 70.49 C 124.7 56.39 184.8 40.67 248.24 39.09 C 296.39 37.9 333.86 31.85 360.65 25.5 C 366.81 28.36 372.84 31.47 378.75 34.82 Z " fill="rgb(187,245,249)"/></g><g><path d=" M 412.44 57.68 C 395.2 62.33 364.91 70.26 332.03 77.74 C 313.01 82.07 295.66 85.69 280 88.59 C 239.13 96.16 209.82 98.86 192.52 96.62 C 150.79 91.21 68.51 114.81 38.3 124.12 C 44.38 114.03 51.16 104.39 58.59 95.25 C 98.2 84.24 158.86 70.11 195.35 74.83 C 210.02 76.73 244.81 75.06 327.16 56.32 C 350.45 51.01 372.41 45.5 389.25 41.1 C 397.28 46.19 405.02 51.72 412.44 57.68 Z " fill="rgb(107,192,198)"/></g><g><path d=" M 448.88 93.55 C 428.15 96.13 403.45 100.85 377.04 107.46 C 324.2 120.69 275.42 138.61 258.43 151.03 C 248.86 158.02 238.15 162.6 225.97 164.85 C 220.83 165.8 215.43 166.34 209.74 166.47 C 193.67 166.85 176.65 164.08 158.63 161.16 C 137.75 157.77 116.15 154.26 91.81 154.54 C 58.07 154.92 31.39 166.75 14 177.54 C 18.63 163.08 24.55 149.12 31.64 135.82 L 31.64 135.81 C 48.58 129.53 68.66 124.95 91.46 124.69 C 118.38 124.38 142.3 128.27 163.41 131.7 C 197.07 137.17 221.39 141.12 240.8 126.93 C 265.58 108.82 325.77 89.53 369.78 78.51 C 382.2 75.4 402.04 70.78 423.53 67.14 C 432.6 75.29 441.07 84.12 448.88 93.55 Z " fill="rgb(187,245,249)"/></g><g><path d=" M 478.46 138.22 C 457.02 131.59 429.46 126.91 409.1 139.31 C 380.14 156.95 329.36 182.3 285.91 190.36 C 270.9 193.14 256.77 193.86 244.71 191.48 C 241.54 190.86 234.24 191.12 217.44 195.89 C 203.66 199.81 186.67 205.82 168.68 212.19 C 142.3 221.54 113.51 231.73 85.39 238.91 L 85.38 238.91 C 77.13 241.02 68.95 242.87 60.9 244.36 C 60.21 244.49 59.53 244.61 58.84 244.73 L 58.81 244.74 C 38.58 248.35 19.26 249.62 2.12 247.01 C 2.34 239.24 2.92 231.54 3.84 223.92 C 45.68 231.24 110.85 208.17 160.96 190.42 C 206.13 174.43 232.49 165.54 249.17 168.83 C 282.45 175.39 348.76 149.03 397.07 119.59 C 414.21 109.15 435.96 106.08 461.72 110.46 C 467.87 119.29 473.46 128.55 478.46 138.22 Z " fill="rgb(187,245,249)"/></g><g><path d=" M 502.37 207.73 C 498.72 207.77 494.78 207.91 490.55 208.19 C 467.9 209.65 431.63 215.36 387.46 234.24 C 360.44 245.78 331.93 253.61 303.77 258.83 C 229.97 272.51 158.55 268.26 122.33 266.11 C 82.74 263.76 28.79 285.12 5.43 295.37 C 3.7 284.94 2.65 274.55 2.24 264.24 C 16.68 258.22 36.95 250.56 58.82 244.75 L 58.85 244.74 C 67.54 242.43 76.47 240.42 85.39 238.92 L 85.4 238.92 C 98.62 236.69 111.81 235.58 124.09 236.32 C 172.05 239.16 284.34 245.83 375.72 206.79 C 426.62 185.05 468.43 179.14 494.93 178.08 C 497.97 187.67 500.47 197.57 502.37 207.73 Z " fill="rgb(107,192,198)"/></g><g><path d=" M 505.41 280.77 C 504.87 285.95 504.17 291.09 503.31 296.18 L 502.77 299.25 C 492.5 301.49 480.52 303.95 467.41 306.38 C 456.35 308.43 444.51 310.45 432.22 312.29 C 400.81 316.98 372.69 319.63 347.96 320.23 C 310.8 321.13 281.31 317.4 259.84 309.04 C 228.01 296.64 172.85 303.49 100.32 328.84 C 70.72 339.19 43.73 350.73 24.85 359.32 C 22.44 354.05 20.21 348.67 18.16 343.19 C 37.37 334.46 64.56 322.85 94.37 312.43 C 172.07 285.25 229.87 278.64 266.17 292.77 C 326.39 316.21 449.25 293.29 505.41 280.77 Z " fill="rgb(187,245,249)"/></g><g><path d=" M 503.31 296.19 L 502.77 299.26 C 501.5 306.29 499.93 313.25 498.07 320.1 C 472.54 326 430.35 333.26 360.68 340.92 C 276.93 350.13 235.12 357.85 204.6 363.49 C 180.25 367.99 162.65 371.24 137.32 372.5 C 107.92 373.97 72.62 387.43 47.46 398.87 C 43.23 392.82 39.25 386.56 35.55 380.11 C 62.52 367.65 102.12 352.26 136.23 350.55 C 160.1 349.36 176.22 346.38 200.62 341.88 C 230.2 336.42 270.24 329.02 347.97 320.22 C 351.34 319.84 354.78 319.46 358.29 319.07 C 440.48 310.04 482.45 301.68 503.31 296.19 Z " fill="rgb(187,245,249)"/></g><g><path d=" M 483.26 360.69 C 480.11 367.44 476.68 374.05 472.95 380.48 C 410.34 392.23 307.88 409.08 244.66 406.91 C 192.07 405.11 129.36 424.95 85.71 442.05 C 80.95 437.78 76.35 433.33 71.92 428.69 C 79.99 425.43 88.84 422.01 98.29 418.61 C 155.72 397.9 205.17 388.09 245.25 389.46 C 310.8 391.7 423.47 372.19 483.26 360.69 Z " fill="rgb(187,245,249)"/></g><g><path d=" M 450.91 412.67 C 443.07 422.42 434.5 431.59 425.27 440.1 C 400.02 438.79 366.48 441.2 331.39 455.48 C 285.45 474.17 238.91 490.22 199.92 500.83 C 199.91 500.83 199.91 500.83 199.91 500.83 C 181.3 496.71 163.33 490.5 146.32 482.42 C 157.45 480.55 171.51 477.54 189.21 472.81 C 227.64 462.52 274.13 446.55 320.13 427.83 C 368.48 408.17 414.06 408.22 443.79 411.73 C 446.23 412.01 448.6 412.33 450.91 412.67 Z " fill="rgb(107,192,198)"/></g></g></g></g></g></g></g></svg>