<?xml version="1.0" encoding="UTF-8" standalone="no"?><!-- Generator: Gravit.io --><svg xmlns="http://www.w3.org/2000/svg" xmlns:xlink="http://www.w3.org/1999/xlink" style="isolation:isolate" viewBox="0 0 875 270" width="875pt" height="270pt"><defs><clipPath id="_clipPath_qGXDnGhTQxkhyCvz3Xsr0GoVSquxU3yx"><rect width="875" height="270"/></clipPath></defs><g clip-path="url(#_clipPath_qGXDnGhTQxkhyCvz3Xsr0GoVSquxU3yx)"><g><g><path d=" M 872.2 48.962 C 872.09 48.562 872.01 48.142 871.86 47.752 L 871.43 46.592 L 870.99 45.422 C 870.84 45.042 870.69 44.642 870.5 44.292 C 870.14 43.562 869.77 42.832 869.4 42.102 C 867.82 39.312 865.96 36.742 863.89 34.602 C 859.78 30.212 855.18 26.962 850.53 24.272 C 845.86 21.582 841.09 19.492 836.3 17.682 C 831.51 15.882 826.7 14.352 821.86 13.042 C 817.03 11.752 812.19 10.592 807.35 9.652 C 806.14 9.392 804.93 9.172 803.71 8.952 L 800.08 8.292 C 797.66 7.902 795.24 7.462 792.81 7.132 C 783.11 5.682 773.42 4.642 763.73 3.862 C 744.35 2.322 725 1.892 705.7 2.022 C 686.4 2.172 678.39 3.562 674.14 3.862 C 676.16 6.952 678.11 10.992 680 14.182 C 682.45 14.102 686.53 13.632 705.57 14.182 C 724.59 14.742 743.58 15.922 762.36 18.062 C 771.75 19.132 781.08 20.472 790.3 22.162 C 799.52 23.832 808.6 25.962 817.38 28.592 C 821.77 29.922 826.05 31.432 830.18 33.132 C 834.3 34.822 838.27 36.742 841.86 38.932 C 845.45 41.112 848.65 43.612 851.02 46.312 C 852.25 47.642 853.14 49.042 853.9 50.422 C 854.06 50.772 854.22 51.122 854.39 51.462 C 854.49 51.622 854.54 51.802 854.6 51.982 L 854.77 52.502 L 854.96 53.022 C 855.03 53.192 855.04 53.372 855.09 53.552 C 855.16 53.902 855.24 54.252 855.33 54.612 C 855.36 54.972 855.39 55.332 855.43 55.692 C 855.45 55.872 855.5 56.042 855.48 56.232 L 855.47 56.782 L 855.47 57.332 C 855.48 57.512 855.49 57.692 855.45 57.882 C 855.4 58.262 855.36 58.642 855.32 59.012 C 855.05 60.542 854.67 62.132 853.94 63.772 C 852.59 67.042 850.43 70.412 847.8 73.612 C 845.17 76.832 842.07 79.902 838.77 82.832 C 835.45 85.762 831.94 88.562 828.27 91.242 C 824.58 93.902 820.81 96.492 816.89 98.932 C 815.93 99.552 814.94 100.162 813.95 100.752 L 810.98 102.552 C 808.97 103.712 806.99 104.902 804.95 106.032 C 796.85 110.592 788.52 114.872 780.05 118.912 C 763.1 126.992 745.61 134.152 727.91 140.802 C 710.75 147.232 693.37 153.162 675.84 158.672 C 675.27 158.852 674.71 159.022 674.14 159.202 C 640.79 169.682 607 178.892 572.99 187.262 L 572.98 187.262 C 570.08 187.982 567.17 188.692 564.26 189.392 C 536.2 196.182 508 202.392 479.68 208.092 L 479.67 208.092 C 470.69 209.902 461.7 211.662 452.69 213.362 C 434 216.902 415.26 220.222 396.47 223.222 C 387.08 224.712 377.68 226.182 368.27 227.562 C 358.86 228.932 349.44 230.262 340.01 231.472 C 302.3 236.402 264.45 240.212 226.56 242.392 C 219.26 242.802 211.97 243.162 204.68 243.442 C 200.62 243.602 196.57 243.732 192.51 243.842 C 184.92 244.052 177.33 244.172 169.75 244.202 C 150.84 244.242 131.95 243.782 113.24 242.262 C 103.89 241.502 94.59 240.502 85.4 239.142 C 83.1 238.822 80.82 238.412 78.53 238.052 L 75.12 237.432 C 73.98 237.232 72.84 237.022 71.72 236.782 C 67.19 235.912 62.75 234.842 58.35 233.702 C 53.96 232.532 49.68 231.182 45.54 229.652 C 41.41 228.112 37.42 226.372 33.81 224.322 C 30.2 222.292 26.97 219.942 24.54 217.392 C 23.27 216.132 22.34 214.792 21.53 213.462 C 21.36 213.132 21.18 212.792 21 212.462 C 20.89 212.302 20.83 212.122 20.77 211.952 L 20.57 211.442 L 20.36 210.942 C 20.28 210.772 20.27 210.592 20.21 210.422 C 20.12 210.072 20.02 209.732 19.91 209.382 C 19.87 209.022 19.81 208.672 19.75 208.312 C 19.73 208.132 19.67 207.962 19.67 207.772 L 19.65 207.222 L 19.62 206.662 C 19.61 206.472 19.59 206.292 19.62 206.102 C 19.65 205.722 19.68 205.332 19.7 204.952 C 19.9 203.402 20.22 201.752 20.89 200.072 C 22.12 196.692 24.19 193.192 26.75 189.852 C 29.31 186.492 32.33 183.282 35.57 180.202 C 38.82 177.132 42.28 174.172 45.89 171.352 C 49.53 168.542 53.24 165.792 57.1 163.202 C 58.05 162.532 59.02 161.892 60 161.252 L 62.92 159.332 C 64.91 158.102 66.86 156.812 68.88 155.612 C 76.88 150.722 85.12 146.132 93.51 141.782 C 110.3 133.082 127.63 125.222 145.22 117.972 C 154.79 114.022 158.29 111.65 168 108 C 168.62 103.75 168.65 100.952 169.49 96.772 C 157.56 100.802 152.53 102.192 140.74 106.672 C 122.71 113.552 104.82 120.932 87.3 129.342 C 78.54 133.552 69.87 137.992 61.34 142.812 C 59.2 144.002 57.1 145.272 54.98 146.502 L 51.82 148.422 C 50.77 149.062 49.72 149.702 48.68 150.382 C 44.5 152.992 40.4 155.802 36.35 158.722 C 32.31 161.662 28.36 164.812 24.53 168.192 C 20.71 171.592 17 175.242 13.59 179.402 C 10.2 183.562 7.05 188.232 4.78 193.782 C 3.61 196.522 2.79 199.572 2.3 202.752 C 2.21 203.562 2.12 204.372 2.05 205.182 C 2 205.582 2 206.002 2 206.412 L 2 207.652 L 2.01 208.902 C 2.01 209.312 2.08 209.732 2.12 210.152 C 2.21 210.982 2.31 211.822 2.42 212.642 C 2.6 213.452 2.78 214.272 2.98 215.092 C 3.08 215.492 3.16 215.922 3.3 216.302 L 3.71 217.482 L 4.13 218.662 C 4.27 219.052 4.41 219.452 4.6 219.812 C 4.94 220.552 5.3 221.292 5.66 222.032 C 7.19 224.882 9.01 227.512 11.04 229.732 C 15.08 234.252 19.65 237.672 24.29 240.502 C 28.93 243.332 33.69 245.592 38.47 247.572 C 43.26 249.532 48.07 251.222 52.9 252.692 C 57.73 254.132 62.57 255.462 67.42 256.572 C 68.63 256.872 69.84 257.132 71.06 257.402 L 74.7 258.192 C 77.13 258.662 79.56 259.182 81.98 259.602 C 91.7 261.382 101.43 262.762 111.16 263.852 C 130.61 266.022 150.07 267.162 169.49 267.642 C 181.17 267.922 192.84 268.002 204.5 267.872 C 205.46 267.862 206.39 267.852 207.34 267.842 L 207.35 267.842 C 214.13 267.752 220.9 267.592 227.65 267.362 C 237.33 267.052 247 266.642 256.66 266.102 C 265.97 265.592 275.26 264.982 284.55 264.272 L 284.56 264.272 C 284.91 264.252 285.26 264.212 285.61 264.192 C 295.25 263.452 304.88 262.632 314.5 261.712 C 319.31 261.272 324.11 260.762 328.92 260.272 C 333.72 259.742 338.52 259.242 343.32 258.672 C 362.51 256.472 381.67 253.972 400.77 251.122 C 419.87 248.272 438.92 245.102 457.93 241.702 C 473.37 238.892 488.78 235.872 504.15 232.642 L 504.18 232.632 C 526.6 227.912 548.92 222.712 571.13 216.992 C 602 209.042 632.63 200.112 662.92 190.002 C 662.93 190.002 662.93 190.002 662.93 190.002 C 662.94 190.002 662.94 190.002 662.94 190.002 C 666.13 188.942 669.32 187.852 672.5 186.762 C 675.73 185.662 678.96 184.532 682.19 183.402 C 700.46 176.942 718.58 170.032 736.51 162.552 C 754.44 155.062 772.16 146.982 789.53 137.962 C 798.21 133.442 806.8 128.672 815.23 123.532 C 823.66 118.412 831.91 112.832 839.9 106.692 C 843.89 103.602 847.78 100.302 851.55 96.772 C 855.31 93.232 858.94 89.432 862.28 85.142 C 865.6 80.852 868.65 76.042 870.82 70.382 C 871.93 67.592 872.7 64.492 873.11 61.292 C 873.19 60.472 873.25 59.662 873.31 58.842 C 873.36 58.442 873.35 58.022 873.34 57.602 L 873.31 56.352 L 873.27 55.102 C 873.26 54.682 873.18 54.272 873.14 53.852 C 873.03 53.022 872.91 52.192 872.79 51.362 C 872.61 50.592 872.41 49.772 872.2 48.962 Z " fill="rgb(225,249,249)"/></g></g></g></svg>