<?xml version="1.0" encoding="UTF-8" standalone="no"?><!-- Generator: Gravit.io --><svg xmlns="http://www.w3.org/2000/svg" xmlns:xlink="http://www.w3.org/1999/xlink" style="isolation:isolate" viewBox="0 0 270 875" width="270pt" height="875pt"><defs><clipPath id="_clipPath_ctpnJEvOh1Hw94zYpZ6HDT76j3fqKlZ5"><rect width="270" height="875"/></clipPath></defs><g clip-path="url(#_clipPath_ctpnJEvOh1Hw94zYpZ6HDT76j3fqKlZ5)"><clipPath id="_clipPath_Ry9h5qVwAcWuv2c024XXUCRfKvkjFlVC"><rect x="-302.5" y="302.5" width="875" height="270" transform="matrix(0,-1,1,0,-302.5,572.5)" fill="rgb(255,255,255)"/></clipPath><g clip-path="url(#_clipPath_Ry9h5qVwAcWuv2c024XXUCRfKvkjFlVC)"><g><g><g><path d=" M 48.962 2.8 C 48.562 2.91 48.142 2.99 47.752 3.14 L 46.592 3.57 L 45.422 4.01 C 45.042 4.16 44.642 4.31 44.292 4.5 C 43.562 4.86 42.832 5.23 42.102 5.6 C 39.312 7.18 36.742 9.04 34.602 11.11 C 30.212 15.22 26.962 19.82 24.272 24.47 C 21.582 29.14 19.492 33.91 17.682 38.7 C 15.882 43.49 14.352 48.3 13.042 53.14 C 11.752 57.97 10.592 62.81 9.652 67.65 C 9.392 68.86 9.172 70.07 8.952 71.29 L 8.292 74.92 C 7.902 77.34 7.462 79.76 7.132 82.19 C 5.682 91.89 4.642 101.58 3.862 111.27 C 2.322 130.65 1.892 150 2.022 169.3 C 2.172 188.6 3.562 196.61 3.862 200.86 C 6.952 198.84 10.992 196.89 14.182 195 C 14.102 192.55 13.632 188.47 14.182 169.43 C 14.742 150.41 15.922 131.42 18.062 112.64 C 19.132 103.25 20.472 93.92 22.162 84.7 C 23.832 75.48 25.962 66.4 28.592 57.62 C 29.922 53.23 31.432 48.95 33.132 44.82 C 34.822 40.7 36.742 36.73 38.932 33.14 C 41.112 29.55 43.612 26.35 46.312 23.98 C 47.642 22.75 49.042 21.86 50.422 21.1 C 50.772 20.94 51.122 20.78 51.462 20.61 C 51.622 20.51 51.802 20.46 51.982 20.4 L 52.502 20.23 L 53.022 20.04 C 53.192 19.97 53.372 19.96 53.552 19.91 C 53.902 19.84 54.252 19.76 54.612 19.67 C 54.972 19.64 55.332 19.61 55.692 19.57 C 55.872 19.55 56.042 19.5 56.232 19.52 L 56.782 19.53 L 57.332 19.53 C 57.512 19.52 57.692 19.51 57.882 19.55 C 58.262 19.6 58.642 19.64 59.012 19.68 C 60.542 19.95 62.132 20.33 63.772 21.06 C 67.042 22.41 70.412 24.57 73.612 27.2 C 76.832 29.83 79.902 32.93 82.832 36.23 C 85.762 39.55 88.562 43.06 91.242 46.73 C 93.902 50.42 96.492 54.19 98.932 58.11 C 99.552 59.07 100.162 60.06 100.752 61.05 L 102.552 64.02 C 103.712 66.03 104.902 68.01 106.032 70.05 C 110.592 78.15 114.872 86.48 118.912 94.95 C 126.992 111.9 134.152 129.39 140.802 147.09 C 147.232 164.25 153.162 181.63 158.672 199.16 C 158.852 199.73 159.022 200.29 159.202 200.86 C 169.682 234.21 178.892 268 187.262 302.01 L 187.262 302.02 C 187.982 304.92 188.692 307.83 189.392 310.74 C 196.182 338.8 202.392 367 208.092 395.32 L 208.092 395.33 C 209.902 404.31 211.662 413.3 213.362 422.31 C 216.902 441 220.222 459.74 223.222 478.53 C 224.712 487.92 226.182 497.32 227.562 506.73 C 228.932 516.14 230.262 525.56 231.472 534.99 C 236.402 572.7 240.212 610.55 242.392 648.44 C 242.802 655.74 243.162 663.03 243.442 670.32 C 243.602 674.38 243.732 678.43 243.842 682.49 C 244.052 690.08 244.172 697.67 244.202 705.25 C 244.242 724.16 243.782 743.05 242.262 761.76 C 241.502 771.11 240.502 780.41 239.142 789.6 C 238.822 791.9 238.412 794.18 238.052 796.47 L 237.432 799.88 C 237.232 801.02 237.022 802.16 236.782 803.28 C 235.912 807.81 234.842 812.25 233.702 816.65 C 232.532 821.04 231.182 825.32 229.652 829.46 C 228.112 833.59 226.372 837.58 224.322 841.19 C 222.292 844.8 219.942 848.03 217.392 850.46 C 216.132 851.73 214.792 852.66 213.462 853.47 C 213.132 853.64 212.792 853.82 212.462 854 C 212.302 854.11 212.122 854.17 211.952 854.23 L 211.442 854.43 L 210.942 854.64 C 210.772 854.72 210.592 854.73 210.422 854.79 C 210.072 854.88 209.732 854.98 209.382 855.09 C 209.022 855.13 208.672 855.19 208.312 855.25 C 208.132 855.27 207.962 855.33 207.772 855.33 L 207.222 855.35 L 206.662 855.38 C 206.472 855.39 206.292 855.41 206.102 855.38 C 205.722 855.35 205.332 855.32 204.952 855.3 C 203.402 855.1 201.752 854.78 200.072 854.11 C 196.692 852.88 193.192 850.81 189.852 848.25 C 186.492 845.69 183.282 842.67 180.202 839.43 C 177.132 836.18 174.172 832.72 171.352 829.11 C 168.542 825.47 165.792 821.76 163.202 817.9 C 162.532 816.95 161.892 815.98 161.252 815 L 159.332 812.08 C 158.102 810.09 156.812 808.14 155.612 806.12 C 150.722 798.12 146.132 789.88 141.782 781.49 C 133.082 764.7 125.222 747.37 117.972 729.78 C 114.022 720.21 111.65 716.71 108 707 C 103.75 706.38 100.952 706.35 96.772 705.51 C 100.802 717.44 102.192 722.47 106.672 734.26 C 113.552 752.29 120.932 770.18 129.342 787.7 C 133.552 796.46 137.992 805.13 142.812 813.66 C 144.002 815.8 145.272 817.9 146.502 820.02 L 148.422 823.18 C 149.062 824.23 149.702 825.28 150.382 826.32 C 152.992 830.5 155.802 834.6 158.722 838.65 C 161.662 842.69 164.812 846.64 168.192 850.47 C 171.592 854.29 175.242 858 179.402 861.41 C 183.562 864.8 188.232 867.95 193.782 870.22 C 196.522 871.39 199.572 872.21 202.752 872.7 C 203.562 872.79 204.372 872.88 205.182 872.95 C 205.582 873 206.002 873 206.412 873 L 207.652 873 L 208.902 872.99 C 209.312 872.99 209.732 872.92 210.152 872.88 C 210.982 872.79 211.822 872.69 212.642 872.58 C 213.452 872.4 214.272 872.22 215.092 872.02 C 215.492 871.92 215.922 871.84 216.302 871.7 L 217.482 871.29 L 218.662 870.87 C 219.052 870.73 219.452 870.59 219.812 870.4 C 220.552 870.06 221.292 869.7 222.032 869.34 C 224.882 867.81 227.512 865.99 229.732 863.96 C 234.252 859.92 237.672 855.35 240.502 850.71 C 243.332 846.07 245.592 841.31 247.572 836.53 C 249.532 831.74 251.222 826.93 252.692 822.1 C 254.132 817.27 255.462 812.43 256.572 807.58 C 256.872 806.37 257.132 805.16 257.402 803.94 L 258.192 800.3 C 258.662 797.87 259.182 795.44 259.602 793.02 C 261.382 783.3 262.762 773.57 263.852 763.84 C 266.022 744.39 267.162 724.93 267.642 705.51 C 267.922 693.83 268.002 682.16 267.872 670.5 C 267.862 669.54 267.852 668.61 267.842 667.66 L 267.842 667.65 C 267.752 660.87 267.592 654.1 267.362 647.35 C 267.052 637.67 266.642 628 266.102 618.34 C 265.592 609.03 264.982 599.74 264.272 590.45 L 264.272 590.44 C 264.252 590.09 264.212 589.74 264.192 589.39 C 263.452 579.75 262.632 570.12 261.712 560.5 C 261.272 555.69 260.762 550.89 260.272 546.08 C 259.742 541.28 259.242 536.48 258.672 531.68 C 256.472 512.49 253.972 493.33 251.122 474.23 C 248.272 455.13 245.102 436.08 241.702 417.07 C 238.892 401.63 235.872 386.22 232.642 370.85 L 232.632 370.82 C 227.912 348.4 222.712 326.08 216.992 303.87 C 209.042 273 200.112 242.37 190.002 212.08 C 190.002 212.07 190.002 212.07 190.002 212.07 C 190.002 212.06 190.002 212.06 190.002 212.06 C 188.942 208.87 187.852 205.68 186.762 202.5 C 185.662 199.27 184.532 196.04 183.402 192.81 C 176.942 174.54 170.032 156.42 162.552 138.49 C 155.062 120.56 146.982 102.84 137.962 85.47 C 133.442 76.79 128.672 68.2 123.532 59.77 C 118.412 51.34 112.832 43.09 106.692 35.1 C 103.602 31.11 100.302 27.22 96.772 23.45 C 93.232 19.69 89.432 16.06 85.142 12.72 C 80.852 9.4 76.042 6.35 70.382 4.18 C 67.592 3.07 64.492 2.3 61.292 1.89 C 60.472 1.81 59.662 1.75 58.842 1.69 C 58.442 1.64 58.022 1.65 57.602 1.66 L 56.352 1.69 L 55.102 1.73 C 54.682 1.74 54.272 1.82 53.852 1.86 C 53.022 1.97 52.192 2.09 51.362 2.21 C 50.592 2.39 49.772 2.59 48.962 2.8 Z " fill="rgb(225,249,249)"/></g></g></g></g></g></svg>