<?xml version="1.0" encoding="UTF-8" standalone="no"?><!-- Generator: Gravit.io --><svg xmlns="http://www.w3.org/2000/svg" xmlns:xlink="http://www.w3.org/1999/xlink" style="isolation:isolate" viewBox="0 0 390 390" width="390pt" height="390pt"><defs><clipPath id="_clipPath_rciLY8IxwW92is86zaKwtpihFLIVXBBt"><rect width="390" height="390"/></clipPath></defs><g clip-path="url(#_clipPath_rciLY8IxwW92is86zaKwtpihFLIVXBBt)"><clipPath id="_clipPath_ezHarb94pptehoZGePIik0dtO5T7iVBV"><rect x="1.5" y="2" width="389" height="388" transform="matrix(1,0,0,1,0,0)" fill="rgb(255,255,255)"/></clipPath><g clip-path="url(#_clipPath_ezHarb94pptehoZGePIik0dtO5T7iVBV)"><g><g><g><path d=" M 1.5 195.2 C 1.5 245.2 20.5 290.77 51.66 325.07 C 62.89 337.43 75.7 348.33 89.77 357.44 C 119.98 377.02 156.01 388.39 194.69 388.39 C 239.06 388.39 279.93 373.43 312.54 348.29 C 356 314.79 384.79 263.19 387.65 204.78 C 387.81 201.6 387.89 198.4 387.89 195.19 C 387.89 174.21 384.55 154 378.35 135.08 C 372.29 116.55 363.5 99.24 352.46 83.65 C 328.41 49.69 293.67 23.84 253.14 11 C 253.14 11 253.14 11 253.13 11 C 234.7 5.15 215.07 2 194.7 2 C 175.38 2 156.72 4.84 139.11 10.12 C 59.51 34 1.5 107.82 1.5 195.2 Z " fill="rgb(221,155,38)"/><g><g><path d=" M 1.5 195.2 C 1.5 245.2 20.5 290.77 51.66 325.07 C 63.39 315.72 69.35 304.67 59.53 292.94 C 32.04 260.1 215.31 254.76 234.4 211.23 C 253.49 167.7 84.73 251.7 53.42 195.19 C 22.11 138.68 1.39 146.55 206.82 84.14 C 247.2 71.87 69.87 72 139.09 10.12 C 59.51 34 1.5 107.82 1.5 195.2 Z " fill="rgb(244,202,83)"/></g></g><g><path d=" M 122.93 35.08 C 123.4 28.11 128.18 19.89 139.1 10.12 C 131.41 12.43 123.92 15.21 116.66 18.41 C 115.52 24.95 118.06 30.43 122.93 35.08 Z " fill="rgb(193,132,33)"/><path d=" M 34 158.43 C 29.68 137.18 62.24 128.07 206.83 84.14 C 220.88 79.87 208.57 77.1 189.47 72.7 C 26.07 122.32 15.02 125.43 34 158.43 Z " fill="rgb(193,132,33)"/><path d=" M 57.96 290.7 C 57.74 297.76 52.62 304.39 45.16 310.34 C 33.06 297.02 22.79 282 14.76 265.68 C 23.41 287.75 36 307.83 51.66 325.07 C 63.39 315.72 69.35 304.67 59.53 292.94 C 58.9 292.18 58.38 291.43 57.96 290.7 Z " fill="rgb(193,132,33)"/><path d=" M 226.96 198.37 C 203.51 240.18 25.95 245.84 53.04 278.2 C 54.88 280.4 56.17 282.58 56.97 284.72 C 63.59 258.83 217.03 250.85 234.41 211.23 C 238.06 202.89 234.82 199.23 226.96 198.37 Z " fill="rgb(193,132,33)"/></g><g><g><path d=" M 170.26 36.37 C 199.28 62.33 294.56 82.7 283.11 104.09 C 274.34 120.45 335.98 117.96 352.46 83.66 C 328.41 49.7 293.67 23.85 253.14 11.01 C 253.14 11.01 253.14 11.01 253.13 11.01 C 209.67 13.33 151.5 19.58 170.26 36.37 Z " fill="rgb(244,202,83)"/></g></g><path d=" M 288.31 87.94 C 299.59 66.89 207.43 46.82 176.87 21.44 C 167.03 25.12 163.2 29.95 170.26 36.26 C 199.28 62.22 294.56 82.59 283.11 103.98 C 274.34 120.34 335.98 117.85 352.46 83.55 C 351.42 82.09 350.36 80.65 349.29 79.21 C 326.46 102.14 280.67 102.19 288.31 87.94 Z " fill="rgb(193,132,33)"/><g><g><path d=" M 188.59 291.41 C 235.93 312.03 343.58 336.69 342.05 306.91 C 340.52 277.13 337.49 234.14 362.69 220.39 C 369.74 216.55 378.58 210.91 387.65 204.78 C 387.81 201.6 387.89 198.4 387.89 195.19 C 387.89 174.21 384.55 154 378.35 135.08 C 334.3 136.83 255.45 136.71 235.93 115.01 C 208.44 84.47 45.61 155.3 109.75 175.15 C 173.89 195 348.04 176.14 312.15 189.89 C 276.26 203.63 250.44 223.45 289.39 235.66 C 328.33 247.88 275.65 272.31 245.86 272.31 C 216.08 272.32 141.24 270.79 188.59 291.41 Z " fill="rgb(244,202,83)"/></g></g><g><path d=" M 311.71 190.33 C 275.82 204.07 250 223.89 288.95 236.1 C 311.41 243.15 303.39 254.26 286.86 262.4 C 314.47 255.82 342.34 238.12 311.05 228.3 C 272.11 216.08 297.92 196.27 333.81 182.53 C 369.7 168.79 195.56 187.65 131.41 167.79 C 96.94 157.12 128.03 131.72 168.43 115.26 C 119.04 130.04 68.71 163.03 109.31 175.59 C 173.46 195.45 347.6 176.58 311.71 190.33 Z " fill="rgb(193,132,33)"/><path d=" M 210.69 284.04 C 200.8 279.74 196.25 276.4 195.49 273.81 C 174.21 275.57 161.7 280.14 188.58 291.84 C 232.32 310.89 327.52 333.39 340.56 313.22 C 306.45 314.87 243.81 298.47 210.69 284.04 Z " fill="rgb(193,132,33)"/></g><g><g><path d=" M 89.78 357.44 C 119.99 377.02 156.02 388.39 194.7 388.39 C 239.07 388.39 279.94 373.43 312.55 348.29 C 291.84 351.99 266.38 352.16 244.34 339.52 C 197.76 312.79 163.48 302.99 166.53 338.12 C 169.07 367.35 124.83 346.64 89.78 357.44 Z " fill="rgb(244,202,83)"/></g></g><path d=" M 178.66 349.38 C 175.61 314.25 209.89 324.06 256.47 350.78 C 268.14 357.47 280.76 360.57 293.13 361.46 C 299.88 357.46 306.37 353.05 312.55 348.28 C 291.84 351.98 266.38 352.15 244.34 339.51 C 197.76 312.78 163.48 302.98 166.53 338.11 C 169.07 367.34 124.84 346.63 89.78 357.43 C 95.33 361.02 101.07 364.34 106.99 367.36 C 141.08 359.77 181.08 377.22 178.66 349.38 Z " fill="rgb(193,132,33)"/></g></g></g></g></g></svg>